<svg width="364" height="364" viewBox="0 0 364 364" fill="none" xmlns="http://www.w3.org/2000/svg">
<path d="M167.507 319.8C167.003 319.8 166.498 319.721 166.018 319.562L163.308 318.672C162.661 318.457 162.065 318.108 161.565 317.647L159.459 315.704C159.03 315.307 158.677 314.834 158.418 314.314L157.147 314.588C156.849 314.652 156.547 314.687 156.245 314.691C156.245 314.691 153.481 314.747 153.449 314.747C153.306 314.747 153.163 314.739 153.02 314.727L150.322 314.485C150.255 314.477 150.187 314.469 150.116 314.461L147.848 314.155L145.734 314.258L143.184 314.544C143.005 314.564 142.826 314.576 142.648 314.576C142.366 314.576 142.08 314.552 141.802 314.501L139.366 314.064C137.468 313.722 135.962 312.268 135.553 310.381L134.993 307.795C134.897 307.354 134.866 306.901 134.897 306.449C134.897 306.449 135.104 303.545 135.104 303.521L135.315 301.082C135.315 301.082 134.834 295.739 134.83 295.703L134.647 292.962L134.345 290.221C134.313 289.939 134.31 289.653 134.329 289.371L134.516 286.67L134.532 283.977C134.532 283.806 134.544 283.635 134.564 283.464L134.782 281.522L134.246 279.579C134.131 279.166 134.075 278.737 134.075 278.308V275.46C134.079 274.931 134.167 274.419 134.329 273.946L134.27 273.104L133.877 270.435C133.857 270.307 133.845 270.18 133.837 270.053L133.682 267.713L133.01 265.417C132.86 264.901 132.796 264.357 132.828 263.82L132.975 261.139L132.879 258.652L132.593 256.003L132.288 253.516L131.624 251.025C131.529 250.672 131.477 250.306 131.465 249.937L131.394 247.541L130.846 245.19C130.758 244.808 130.714 244.419 130.722 244.03L130.766 241.328L130.603 238.711L130.357 235.914C130.345 235.771 130.337 235.632 130.337 235.489V233.276L129.725 231.115C129.586 230.623 129.527 230.11 129.547 229.594L129.638 227.572L128.994 225.605C128.776 224.942 128.708 224.235 128.792 223.544L129.03 221.585L128.494 219.71C128.387 219.333 128.327 218.944 128.311 218.55L128.232 216.076L127.743 213.636C127.64 213.112 127.624 212.572 127.695 212.044L128.009 209.811L127.687 207.654C127.652 207.412 127.636 207.169 127.636 206.927L127.648 204.83L126.968 202.78C126.869 202.482 126.802 202.18 126.762 201.87L126.408 199.022C126.357 198.617 126.361 198.204 126.412 197.798L126.718 195.53L126.412 193.333C126.384 193.139 126.369 192.94 126.369 192.745L126.333 190.203L125.959 187.788L125.423 185.051C125.336 184.61 125.312 184.161 125.352 183.716L125.534 181.619L125.022 179.581C124.895 179.08 124.851 178.564 124.891 178.051L125.085 175.525L124.907 173.276L124.434 170.678C124.39 170.432 124.362 170.182 124.358 169.932L124.303 167.473L123.826 165.046C123.767 164.74 123.735 164.434 123.735 164.124V161.47C123.735 161.47 123.485 158.785 123.481 158.757L123.262 155.897C123.25 155.75 123.246 155.603 123.25 155.452L123.29 153.025L122.885 150.697L122.325 147.928C122.289 147.746 122.261 147.563 122.245 147.376L122.007 144.52L121.78 141.64C121.749 141.227 121.768 140.814 121.844 140.409L122.19 138.514L121.733 136.69C121.629 136.269 121.582 135.84 121.59 135.407L121.649 133.155L121.121 130.934C120.99 130.386 120.958 129.814 121.026 129.254L121.272 127.24L120.775 125.277C120.696 124.96 120.648 124.634 120.632 124.304L120.513 121.44C120.513 121.373 120.513 121.305 120.513 121.237V118.409L120.477 115.99L120.017 113.551C119.961 113.257 119.933 112.955 119.933 112.653L119.941 109.781C119.941 109.618 119.949 109.459 119.969 109.296L120.199 107.111L119.786 104.97C119.731 104.676 119.699 104.382 119.699 104.085L119.691 101.673L119.218 99.2818C119.151 98.9362 119.119 98.5827 119.131 98.2291L119.206 95.3531C119.206 95.2299 119.218 95.1067 119.23 94.9876L119.449 92.8861L118.976 90.8205C118.877 90.3835 118.837 89.9347 118.865 89.4858L119 87.138L118.614 84.8182C118.539 84.3653 118.531 83.9005 118.587 83.4476L118.853 81.3224L118.44 79.2329C118.372 78.8873 118.34 78.5377 118.352 78.1841L118.424 75.3518L118.447 72.9246L118.058 70.4697C118.026 70.275 118.01 70.0804 118.003 69.8857L117.903 67.0216C117.895 66.7793 117.903 66.5409 117.931 66.3026L118.03 65.4366C117.78 64.8407 117.649 64.2012 117.653 63.5537V62.7035L117.562 59.7918C117.562 59.7163 117.562 59.6408 117.562 59.5693L117.601 56.6654L117.522 53.7615C117.474 52.0574 118.34 50.4605 119.794 49.5707C120.557 49.102 121.423 48.8676 122.289 48.8676C122.698 48.8676 123.111 48.9192 123.512 49.0264L125.137 49.0105L127.727 48.6014C127.973 48.5616 128.22 48.5418 128.47 48.5418C128.72 48.5418 128.963 48.5616 129.205 48.5974L131.942 49.0264L133.94 49.1735L136.153 48.6451C136.518 48.5577 136.888 48.514 137.261 48.514C137.523 48.514 137.789 48.5338 138.048 48.5815L140.248 48.951L142.445 48.6371C142.668 48.6054 142.894 48.5894 143.116 48.5894C143.192 48.5894 143.271 48.5894 143.347 48.5934L146.279 48.7364C146.398 48.7444 146.521 48.7524 146.64 48.7683L149.087 49.0741L151.534 48.8834C151.61 48.8794 151.689 48.8715 151.764 48.8715L154.696 48.7841C154.744 48.7841 154.788 48.7841 154.835 48.7841C154.938 48.7841 155.042 48.7841 155.141 48.796C155.141 48.796 158.112 48.9867 158.132 48.9906L160.345 49.1615L162.574 48.661C162.919 48.5815 163.269 48.5458 163.622 48.5458C163.976 48.5458 164.357 48.5895 164.715 48.6729L166.864 49.1813L168.997 48.9629C169.16 48.947 169.323 48.939 169.486 48.939C169.49 48.939 172.191 48.947 172.191 48.947L174.88 48.6808C175.035 48.6649 175.19 48.657 175.349 48.657C175.464 48.657 175.575 48.657 175.691 48.6689L178.245 48.8517L180.795 48.6292C180.934 48.6173 181.069 48.6133 181.208 48.6133C181.216 48.6133 184.184 48.6252 184.196 48.6252L187.127 48.661C187.195 48.661 187.258 48.661 187.326 48.6689L190.254 48.8278C190.345 48.8318 190.44 48.8397 190.532 48.8517L193.038 49.1337L195.541 48.9669C195.601 48.9669 195.664 48.9589 195.724 48.9589L198.655 48.8755C198.699 48.8755 198.747 48.8755 198.79 48.8755C198.882 48.8755 198.977 48.8754 199.069 48.8834L201.42 49.0225L203.78 48.5854C204.07 48.5338 204.36 48.506 204.65 48.506C205.174 48.506 205.691 48.5935 206.183 48.7603L206.255 48.2757C206.445 46.9727 207.168 45.8048 208.253 45.054C209.059 44.4939 210.009 44.2 210.974 44.2C211.308 44.2 211.641 44.2357 211.971 44.3032L214.7 44.8872C214.831 44.915 214.958 44.9468 215.085 44.9865L217.811 45.8127C217.926 45.8484 218.037 45.8882 218.148 45.9279L220.365 46.786L222.709 47.1793C222.907 47.2111 223.102 47.2587 223.293 47.3143L225.819 48.0731L228.405 48.6093C228.739 48.6768 229.064 48.7841 229.378 48.9231L230.395 49.376L231.786 47.8228C232.683 46.8217 233.963 46.2457 235.305 46.2378C235.305 46.2378 238.809 46.2139 238.821 46.2139C240.068 46.2139 241.268 46.7026 242.158 47.5765L244.319 49.6938C244.99 50.3492 245.451 51.1914 245.646 52.109L246.257 54.997C246.361 55.4817 246.388 55.9822 246.337 56.4748L246.015 59.609C245.983 59.9109 245.924 60.2088 245.836 60.5028L244.962 63.3907L244.259 66.2787L243.612 69.1071L243.199 72.0189C243.155 72.3287 243.079 72.6346 242.976 72.9286L242.158 75.2605L242.027 77.7552C242.003 78.1921 241.923 78.6211 241.78 79.0343L240.934 81.5409L240.672 83.8251C240.636 84.123 240.577 84.4209 240.485 84.7069L239.675 87.289L238.968 89.891C238.944 89.9784 238.916 90.0697 238.888 90.1531L238.165 92.3101L237.923 94.5863C237.915 94.6698 237.903 94.7493 237.891 94.8287L237.45 97.5895C237.431 97.7127 237.407 97.8358 237.375 97.9589C237.375 97.9589 236.704 100.728 236.696 100.76L235.985 103.453C235.945 103.608 235.897 103.759 235.842 103.906L235.305 105.348C235.448 106.349 235.273 107.398 234.753 108.335L233.398 110.774L232.135 113.249L230.908 115.704L229.847 118.012L228.993 120.499L228.087 123.188C227.964 123.549 227.801 123.891 227.599 124.213L226.399 126.112L225.751 128.245C225.632 128.638 225.462 129.016 225.243 129.365L224.063 131.276L223.428 133.421C223.316 133.794 223.161 134.152 222.963 134.49L221.862 136.361L221.346 138.494C221.247 138.899 221.096 139.292 220.893 139.658L219.709 141.819L218.907 144.147C218.816 144.413 218.7 144.671 218.561 144.917L217.37 147.058L216.567 149.37C216.436 149.744 216.261 150.101 216.043 150.435L214.736 152.417L213.906 154.598C213.854 154.737 213.794 154.872 213.731 155.003L212.785 156.926L212.468 159.127L212.094 161.951L211.828 164.827C211.792 165.236 211.701 165.637 211.558 166.027L210.744 168.251L210.537 170.595C210.525 170.718 210.509 170.841 210.489 170.965L210.001 173.892C209.981 174.019 209.953 174.142 209.921 174.266L209.254 176.923L208.845 179.632C208.781 180.053 208.662 180.467 208.487 180.86L207.482 183.116C207.482 183.116 207.041 185.516 207.037 185.539L206.517 188.173L206.306 190.87C206.279 191.252 206.203 191.629 206.084 191.991L205.369 194.168L205.309 196.317C205.293 196.817 205.202 197.31 205.035 197.778L204.272 199.924L204.026 202.128L203.768 204.889C203.724 205.346 203.617 205.791 203.446 206.216L202.513 208.548L201.921 210.943L201.388 213.049L201.444 215.265C201.456 215.682 201.412 216.099 201.313 216.505L200.697 219.067L200.256 221.665C200.213 221.927 200.145 222.189 200.058 222.439L199.351 224.461L199.239 226.607C199.211 227.151 199.088 227.687 198.878 228.192L198.036 230.214L197.781 232.343C197.773 232.406 197.766 232.47 197.754 232.533L197.114 236.546L196.788 239.259C196.768 239.422 196.741 239.581 196.705 239.739L196.208 241.948L196.272 244.216C196.284 244.645 196.236 245.078 196.133 245.495L195.533 247.919L195.338 250.215L195.295 252.908C195.295 252.964 195.295 253.019 195.291 253.075L195.144 255.919C195.128 256.229 195.08 256.539 195.005 256.841L194.369 259.351L194.043 261.858L193.785 264.114L194.047 266.478C194.099 266.931 194.083 267.392 194.004 267.84L193.503 270.649C193.491 270.705 193.483 270.76 193.471 270.816L193.018 272.917L193.205 275.098C193.261 275.762 193.177 276.425 192.967 277.041L193.038 277.422C193.157 278.054 193.15 278.705 193.014 279.333L192.578 281.343L192.856 283.365C192.895 283.667 192.911 283.969 192.891 284.274L192.736 287.119C192.728 287.266 192.713 287.417 192.693 287.564L192.319 290.07L192.299 292.561V295.389C192.303 295.588 192.291 295.783 192.268 295.977L191.97 298.404L192.097 300.84C192.105 301.03 192.105 301.217 192.093 301.408L191.91 304.117L191.886 306.504L192.236 309.245C192.427 310.747 191.894 312.248 190.798 313.293C189.904 314.147 188.724 314.612 187.509 314.612C187.235 314.612 186.96 314.588 186.686 314.54L184.839 314.219L183.202 314.62C182.829 314.711 182.448 314.755 182.066 314.755C181.629 314.755 181.192 314.695 180.767 314.572L179.484 314.207L178.765 315.025L176.914 317.222C176.286 317.969 175.44 318.505 174.495 318.755L171.659 319.51C171.329 319.597 170.987 319.649 170.646 319.665L167.714 319.796C167.642 319.796 167.571 319.8 167.499 319.8H167.507ZM207.017 110.15C207.017 110.21 207.021 110.274 207.021 110.333L207.041 113.165C207.041 113.312 207.037 113.463 207.025 113.61L206.819 116.01L207.359 115.207L208.142 112.979C208.273 112.605 208.451 112.248 208.67 111.918L209.933 110.015L210.593 107.831C210.728 107.386 210.922 106.968 211.177 106.579L212.599 104.426L212.92 103.699C212.865 103.687 212.813 103.675 212.762 103.659L210.064 102.968C209.993 102.948 209.921 102.928 209.85 102.909L207.804 102.281L207.832 104.696C207.84 105.236 207.752 105.769 207.581 106.281L206.93 108.204L207.021 110.146L207.017 110.15Z" fill="white"/>
<path d="M163.49 275.63L166.211 275.908L168.929 275.678L171.65 275.698L174.371 275.638L177.092 276.115L179.809 275.459L182.53 275.618L185.255 275.551L187.972 275.717L188.08 272.885L188.699 270.089L188.898 267.244L189.172 264.412L189.327 261.564L190.03 258.775L190.364 255.947L190.118 253.059L190.924 250.282L190.57 247.382L191.568 244.621L191.83 241.785L191.667 238.909L192.481 236.128L192.128 233.232L192.449 230.404L192.799 227.575L193.57 224.787L193.431 221.915L193.717 219.078L194.046 216.25L194.189 213.402L194.682 210.589L194.396 207.701L195.079 204.905L195.48 202.08L195.643 199.236L195.89 196.4L195.766 193.528L196.553 190.739L196.903 187.911L196.732 185.039L196.871 182.19L197.228 179.362L197.463 176.526L198.051 173.717L197.733 170.833L198.11 168.009L198.742 165.2L198.98 162.364L198.885 159.504L198.98 156.655L198.917 153.795L199.493 150.987L199.794 148.154L200.088 145.318L200.12 142.466L200.649 139.649L200.529 136.789L200.875 133.957L200.637 131.089L201.479 128.292V125.44L201.546 122.592L201.654 119.748L201.61 116.891L201.983 114.063L202.071 111.215L202.357 108.382L202.412 105.534L202.301 102.678L203.127 99.8694L203.342 97.0292L203.159 94.1689L203.469 91.3366L203.676 88.4964L203.322 85.6322L203.989 82.8158L203.902 79.9635L204.371 77.1352L204.295 74.283L204.196 71.4307L204.74 68.6063L204.379 65.7462L204.534 62.9098L204.438 59.9106L204.355 56.9075L204.565 53.8884L201.614 53.658L198.682 53.6302L195.751 54.0156L192.819 54.1784L189.883 53.9599L186.956 54.0036L184.024 53.9798L181.092 53.7812L178.16 53.8368L175.225 53.8566L172.293 54.0791L169.361 53.7533L166.426 54.238L163.49 53.5349L160.559 54.0275L157.627 54.1704L154.695 53.7573L151.763 54.0195L148.832 54.1744L145.9 53.8169L142.969 53.7216L140.037 54.0632L137.105 53.6263L134.173 53.6898L131.238 54.1308L128.306 53.7971L125.37 54.0552L122.415 53.8844L122.626 56.9075L122.256 59.9066L122.308 62.9098L122.892 65.7422L122.769 68.5944L123.13 71.4227L123.074 74.275L123.36 77.1073L122.796 79.9834L123.007 82.8237L123.388 85.656L123.698 88.4884L123.944 91.3247L123.603 94.1928L124.179 97.0093L124.238 99.8575L124.429 102.698L124.699 105.534L124.719 108.382L124.981 111.219L125.243 114.055L125.347 116.899L125.255 119.756L125.676 122.584L125.891 125.42L125.887 128.268L126.149 131.105L125.97 133.969L126.237 136.801L126.288 139.653L126.63 142.482L127.059 145.302L127.484 148.127L127.245 150.999L127.44 153.839L127.845 156.663L128.044 159.504L128.08 162.356L128.56 165.172L129.041 167.993L129.426 170.817L129.391 173.677L129.466 176.53L129.442 179.386L129.788 182.214L130.574 185.007L130.316 187.887L130.928 190.691L131.309 193.512L130.988 196.4L131.119 199.244L131.81 202.041L131.893 204.893L131.941 207.745L132.104 210.589L132.87 213.378L132.914 216.234L133.276 219.059L133.891 221.863L134.158 224.695L134.344 227.54L134.424 230.392L134.352 233.26L135.055 236.053L135.461 238.877L135.198 241.761L135.842 244.562L136.219 247.386L136.231 250.246L136.775 253.055L136.676 255.927L136.946 258.763L137.84 261.536L138.126 264.368L137.967 267.252L138.368 270.073L138.948 272.877L139.131 275.36L141.721 276.115L144.442 275.547L147.163 275.988L149.881 275.594L152.602 275.586L155.323 275.606L158.044 275.737L160.765 275.551L163.49 275.63Z" fill="#378E9F"/>
<path d="M187.15 309.904C186.172 310.893 185.767 309.804 184.373 309.804C182.982 309.804 182.982 310.249 181.588 310.249C180.198 310.249 180.198 309.582 178.803 309.582C177.413 309.582 177.413 309.61 176.019 309.61C174.628 309.61 174.628 309.737 173.234 309.737C171.844 309.737 171.844 309.665 170.449 309.665C169.059 309.665 169.059 310.162 167.665 310.162C166.27 310.162 166.27 309.94 164.88 309.94C163.49 309.94 163.49 309.602 162.095 309.602C160.705 309.602 160.705 309.554 159.311 309.554C157.916 309.554 157.92 310.114 156.526 310.114C155.136 310.114 155.136 310.277 153.741 310.277C152.347 310.277 152.347 309.661 150.957 309.661C149.566 309.661 149.566 310.257 148.172 310.257C146.778 310.257 146.778 309.904 145.387 309.904C143.993 309.904 143.993 309.654 142.598 309.654C141.204 309.654 140.791 310.897 139.81 309.908C138.797 308.887 140.128 308.458 140.096 307.016C140.06 305.574 139.349 305.594 139.313 304.152C139.277 302.71 139.861 302.698 139.83 301.256C139.798 299.814 139.929 299.814 139.897 298.372C139.865 296.93 139.305 296.946 139.27 295.504C139.246 294.542 139.222 293.582 139.198 292.624C139.162 291.182 139.695 291.17 139.663 289.732C139.631 288.294 139.254 288.302 139.218 286.86C139.182 285.418 139.397 285.414 139.361 283.972C139.325 282.53 139.162 282.534 139.131 281.096C139.095 279.654 138.809 279.662 138.777 278.22C138.741 276.778 137.796 276.174 138.801 275.141C139.806 274.108 140.434 275.208 141.876 275.208C143.318 275.208 143.314 275.332 144.756 275.332C146.198 275.332 146.198 275.641 147.636 275.641C149.074 275.641 149.078 275.284 150.516 275.284C151.954 275.284 151.958 275.312 153.396 275.312C154.834 275.312 154.838 275.685 156.276 275.685C157.714 275.685 157.718 274.93 159.156 274.93C160.594 274.93 160.598 275.157 162.036 275.157C163.474 275.157 163.474 275.61 164.916 275.61C166.358 275.61 166.358 275.157 167.796 275.157C169.234 275.157 169.238 275.657 170.676 275.657C172.114 275.657 172.118 275.201 173.556 275.201C174.994 275.201 174.998 275.542 176.436 275.542C177.874 275.542 177.878 275.181 179.32 275.181C180.762 275.181 180.762 275.693 182.2 275.693C183.638 275.693 183.642 275.101 185.084 275.101C186.526 275.101 186.911 274.338 187.92 275.371C188.929 276.404 188.087 276.77 188.055 278.208C188.02 279.65 187.749 279.642 187.718 281.08C187.682 282.522 188.047 282.53 188.012 283.968C187.976 285.406 187.873 285.406 187.837 286.844C187.801 288.286 187.773 288.282 187.738 289.724C187.702 291.166 187.531 291.158 187.499 292.6C187.463 294.042 187.888 294.05 187.857 295.492C187.821 296.934 187.158 296.918 187.126 298.356C187.09 299.798 187.213 299.798 187.181 301.24C187.146 302.682 187.551 302.69 187.519 304.132C187.483 305.574 187.054 305.574 187.316 306.992C187.594 308.497 188.163 308.859 187.146 309.884L187.15 309.904Z" fill="#F19183"/>
<path d="M186.929 161.142L186.587 158.333L186.131 155.552L185.189 152.903L184.407 150.15L182.889 147.735L181.348 145.299L179.139 143.448L177.073 141.426L174.436 140.239L171.691 139.444L169.073 138.395L166.304 137.76L163.464 137.47L160.576 137.351L157.851 138.367L155.07 139.011L152.579 140.401L149.949 141.561L147.876 143.544L145.572 145.291L144.189 147.838L142.469 150.122L141.397 152.772L140.332 155.437L139.987 158.289L139.716 161.142L139.693 164.029L140.257 166.862L141.635 169.42L142.549 172.117L144.106 174.505L145.528 177.031L147.916 178.692L150.017 180.626L152.504 182.029L155.078 183.252L157.775 184.213L160.62 184.571L163.464 184.444L166.292 184.436L169.148 184.202L171.806 183.133L174.404 181.981L176.799 180.46L179.346 179.069L180.903 176.586L182.766 174.465L184.176 172.01L185.491 169.496L186.158 166.735L186.977 163.998L186.929 161.142Z" fill="#9DC68A"/>
<path d="M163.462 168.012L165.611 170.507L166.08 173.832L168.475 173.903L170.021 171.77L170.66 169.108L170.692 166.002L171.784 163.098L172.706 160.155L173.568 157.251L174.021 154.708L173.548 152.202L172.321 150.033L170.271 148.595L166.855 147.625L163.462 148.638L160.038 147.967L156.665 148.615L154.58 150.009L153.368 152.202L152.609 154.712L153.336 157.255L154.262 160.139L154.886 163.201L156.141 166.022L156.721 169.077L157.138 171.695L158.58 173.705L160.952 173.919L161.599 170.55L163.462 168.012Z" fill="white"/>
<path d="M210.647 48.8718L213.75 49.6901L216.602 50.6197L219.383 51.7915L222.259 52.6377L225.163 53.3765L228.198 53.6388L230.935 54.9893L233.707 55.6646L232.917 58.1991L232.015 60.8646L231.193 63.55L230.796 66.3624L230.255 69.1353L229.358 71.8007L228.472 74.4702L227.459 77.1039L226.851 79.8529L225.977 82.5263L225.032 85.1799L224.05 87.8215L223.84 90.6896L223.049 93.3869L221.715 95.9254L221.341 98.7497L220.432 101.431L217.73 100.39L214.957 99.6555L212.109 99.1947L209.328 98.4916L206.671 97.3396L203.767 97.0813L200.998 96.3186L197.999 95.4249L199.135 92.5528L199.719 89.8038L200.645 87.1423L201.256 84.3973L201.725 81.6166L202.639 78.9551L203.199 76.1942L204.125 73.5367L204.82 70.8156L205.662 68.1342L206.56 65.4686L206.925 62.6562L207.859 59.9986L208.312 57.214L209.038 54.5007L209.92 51.8273L210.647 48.8718Z" fill="#DDFBF3"/>
<path d="M241.657 56.2965L240.83 59.3274L240.493 62.4657L239.527 65.4648L239.404 68.6467L238.368 71.634L237.919 74.7445L237.18 77.7953L236.393 80.8303L235.503 83.4839L235.166 86.2685L234.653 89.0095L233.855 91.6829L233.315 94.42L232.413 97.0696L231.642 99.747L231.491 102.579L230.232 105.138L230.125 105.94L229.755 105.992L229.147 108.888L227.443 111.307L226.891 114.231L225.648 116.848L224.412 119.474L223.407 122.199L222.013 124.754L220.666 127.328L219.884 130.148L218.529 132.722L217.27 135.332L216.15 138.01L214.974 140.655L214.159 143.464L212.658 145.974L211.867 148.791L210.123 151.194L209.504 154.094L207.728 156.45L208.816 155.27L207.688 157.943L207.347 160.728L207.192 163.552L206.346 166.234L205.877 168.995L205.233 171.72L204.812 174.489L204.109 177.202L203.469 179.927L203.04 182.696L202.516 185.445L201.849 188.17L201.499 190.954L200.756 193.664L200.284 196.424L200.017 199.225L198.703 201.815L198.417 204.612L198.19 207.42L197.459 210.125L196.486 212.783L196.025 215.548L195.95 218.388L195.02 221.054L194.277 223.759L194.158 226.591L193.248 229.265L192.672 232.006L192.013 234.731L191.85 237.551L191.532 240.344L190.694 243.029L190.368 245.818L189.324 248.459L188.763 251.2L188.803 254.068L188.231 256.806L187.111 259.431L187.067 262.28L186.559 265.032L185.868 267.754L185.387 270.514L184.624 273.216L183.671 275.873L183.27 278.65L182.912 281.435L181.915 284.084L181.387 286.833L181.426 289.697L180.187 292.299L179.881 295.092L179.476 297.869L178.888 300.602L178.236 303.327L177.386 306.012L177.001 308.793L175.543 311.546L173.72 314.219L170.593 315.105L167.451 314.994L164.496 313.882L162.438 311.502L161.377 308.61L160.885 305.44L161.473 305.472L161.477 302.608L162.422 299.95L162.831 297.173L163.24 294.401L164.043 291.711L164.42 288.931L165.608 286.325L165.727 283.488L166.47 280.787L167.356 278.114L168.043 275.401L168.023 272.528L168.885 269.851L169.434 267.102L170.252 264.417L170.76 261.664L171.15 258.883L172.298 256.273L172.834 253.524L173.017 250.7L174.129 248.078L174.546 245.305L174.975 242.533L176.008 239.895L175.928 237.011L176.54 234.282L177.124 231.541L177.795 228.82L178.999 226.218L179.456 223.453L179.937 220.696L180.691 217.995L181.244 215.25L181.669 212.481L182.654 209.831L183.194 207.086L183.417 204.27L184.386 201.616L185.164 198.923L185.212 196.067L185.899 193.35L187.008 190.724L187.476 187.963L187.679 185.139L188.561 182.469L188.752 179.645L190.074 177.075L190.404 174.278L190.722 171.481L191.671 168.828L192.029 166.039L192.601 163.298L193.455 160.625L193.991 157.876L195.072 155.246L195.425 152.453L195.187 152.223L195.791 151.071L196.998 148.433L197.964 145.688L199.453 143.186L200.625 140.532L201.646 137.811L202.917 135.205L204.268 132.635L205.849 130.176L207.12 127.57L208.288 124.916L209.015 122.056L210.763 119.673L211.963 117.035L213.174 114.401L214.505 111.823L215.764 109.209L216.626 106.409L217.615 103.668L218.954 101.078L218.891 102.246L219.665 99.4849L220.233 96.7478L221.071 94.0903L221.985 91.4526L222.942 88.8307L223.129 85.9865L223.9 83.3091L225.223 80.7905L225.592 77.9939L226.585 75.0186L227.757 72.0989L228.627 69.0877L229.235 65.9932L230.105 62.9782L231.416 60.0981L231.853 56.9479L232.814 53.9567L235.154 51.1799L238.646 51.3508L241.144 53.19L241.657 56.2965Z" fill="#367330"/>
<path d="M204.585 64.3354L201.69 63.9818L198.861 64.0771L196.037 63.9778L193.204 64.6254L190.38 64.4982L187.552 64.383L184.723 63.8707L181.895 64.1725L179.066 64.4268L176.238 64.0335L173.41 64.5221L170.581 64.1686L167.749 64.5261L164.92 64.538L162.092 64.5896L159.26 63.9262L156.431 64.0693L153.603 63.9262L150.771 64.0255L147.942 64.3553L145.114 63.8984L142.281 64.2162L139.453 64.4148L136.625 64.5777L133.792 64.4466L130.964 64.5856L128.132 64.093L125.299 64.3155L122.614 64.097L122.451 61.6739L122.705 59.0878L122.201 56.4978L122.518 53.9633L125.291 53.6257L128.12 54.0309L130.948 53.6932L133.776 54.1302L136.605 53.8799L139.429 53.6455L142.262 53.6972L145.086 53.8441L147.918 54.011L150.747 54.2851L153.575 53.6455L156.404 53.7171L159.232 54.0467L162.06 54.0944H164.893L167.721 53.872L170.549 53.5105L173.382 53.7607L176.21 53.8561L179.043 54.0626L181.871 53.7488L184.699 54.0626L187.528 53.5224L190.36 53.8918L193.188 53.6495L196.017 53.6972L198.849 53.7846L201.682 54.0547L204.621 53.7925L204.8 56.4938L204.645 59.0799L204.756 61.6659L204.585 64.3354Z" fill="#266D83"/>
</svg>
