<svg width="363" height="364" viewBox="0 0 363 364" fill="none" xmlns="http://www.w3.org/2000/svg">
<path d="M88.0467 107.703C87.9453 107.703 87.8437 107.699 87.7422 107.692L85.2123 107.511C85.2123 107.511 82.6561 107.534 82.6448 107.534C82.4644 107.534 82.2802 107.522 82.0998 107.5L79.6751 107.206L77.3669 107.221L74.7732 107.371C74.6867 107.375 74.6003 107.379 74.5138 107.379C74.3221 107.379 74.1266 107.368 73.9387 107.341L72.0403 107.096L70.1269 107.552C69.7848 107.632 69.4352 107.673 69.0856 107.673C69.0555 107.673 66.2738 107.613 66.2738 107.613C65.8904 107.605 65.5069 107.549 65.1385 107.443L62.5522 106.708C62.3642 106.655 62.18 106.587 61.9996 106.512L59.7027 105.521L57.2931 104.586C56.6503 104.337 56.0714 103.941 55.6015 103.432L53.7933 101.465C53.5377 101.186 53.3159 100.877 53.1392 100.541L51.8913 98.2116C51.8161 98.0721 51.7484 97.9289 51.6883 97.7818L50.692 95.343C50.5529 95 50.4552 94.6456 50.4026 94.28L50.2034 92.9041C49.8049 92.0447 49.6808 91.0722 49.8688 90.1222L50.3876 87.4761C50.4666 87.0652 50.6056 86.6656 50.7973 86.2887L52.0002 83.9327C52.0566 83.8197 52.1205 83.7103 52.1844 83.6048L53.5453 81.4109C53.7257 81.1169 53.94 80.8493 54.1843 80.6043L56.0038 78.7761L57.8871 76.8574C58.4773 76.2581 59.2216 75.8321 60.0373 75.6323L62.6612 74.9915C62.8792 74.9387 63.101 74.901 63.3266 74.8822L65.9693 74.6447C66.1046 74.6334 66.2361 74.6259 66.3714 74.6259H69.0856C69.2886 74.6259 69.4878 74.6409 69.687 74.6673L71.841 74.9613L73.995 74.7201C74.1491 74.7013 74.3032 74.6937 74.4574 74.6937L76.8783 74.6749L79.303 74.3431C79.506 74.3168 79.7089 74.3017 79.9119 74.3017C80.0472 74.3017 80.1788 74.3092 80.3142 74.3205L83.0245 74.5618C83.0658 74.5618 83.1072 74.5693 83.1486 74.5731L85.483 74.8483L87.558 74.7427L90.0128 74.3356C90.2571 74.2942 90.5052 74.2753 90.7533 74.2753C90.7646 74.2753 93.4938 74.2942 93.4938 74.2942C93.6892 74.2942 93.881 74.3092 94.0764 74.3356L96.6514 74.6899L98.8656 74.8596L101.215 74.6636C101.339 74.6523 101.467 74.6485 101.591 74.6485C101.666 74.6485 101.741 74.6485 101.816 74.6523L104.034 74.7616L106.26 74.3846C106.474 74.3469 106.688 74.3281 106.903 74.3243L109.613 74.2602C109.647 74.2602 109.684 74.2602 109.718 74.2602C109.981 74.2602 110.241 74.2828 110.5 74.3281L112.534 74.6862L114.56 74.4261C114.752 74.3997 114.943 74.3884 115.135 74.3884C115.44 74.3884 115.744 74.4185 116.045 74.4826L118.3 74.95H120.214L122.593 74.5919C122.815 74.558 123.037 74.5429 123.259 74.5429C123.33 74.5429 123.398 74.5429 123.469 74.5467L125.826 74.656L128.187 74.3959C128.349 74.3771 128.514 74.3695 128.679 74.3695C129.003 74.3695 129.326 74.4035 129.642 74.4751L131.642 74.9123L133.63 74.705C133.762 74.6899 133.893 74.6824 134.025 74.6824L136.649 74.6409L139.276 74.5015C139.355 74.4977 139.434 74.4939 139.513 74.4939C139.709 74.4939 139.904 74.5052 140.1 74.5316L142.453 74.8407L144.524 74.7804L146.956 74.4035C147.186 74.3695 147.415 74.3507 147.644 74.3507C147.979 74.3507 148.317 74.3884 148.644 74.4638L150.768 74.95L152.881 74.8633C152.941 74.8633 153.001 74.8633 153.065 74.8633C153.106 74.8633 153.148 74.8633 153.193 74.8633L155.505 74.9274L157.82 74.5806C157.937 74.5618 158.053 74.5505 158.17 74.5429L160.88 74.3507C160.952 74.3469 161.023 74.3432 161.098 74.3394C161.098 74.3394 163.873 74.2791 163.906 74.2791C163.955 74.2791 164.004 74.2791 164.053 74.2791C164.053 74.2791 166.805 74.3695 166.827 74.3695L169.538 74.4977L172.259 74.6334C172.361 74.6372 172.462 74.6485 172.564 74.6598L174.8 74.9237L177.037 74.7163C177.176 74.705 177.315 74.6975 177.451 74.6975C177.507 74.6975 177.56 74.6975 177.616 74.6975L179.868 74.7804L182.127 74.3997C182.375 74.3582 182.623 74.3394 182.871 74.3394C183.119 74.3394 183.36 74.3582 183.604 74.3997L185.713 74.7465L187.818 74.5241C187.976 74.509 188.134 74.4977 188.292 74.4977C188.401 74.4977 188.506 74.5015 188.615 74.509L190.946 74.6786L193.28 74.4525C193.423 74.4374 193.57 74.4336 193.713 74.4336C193.754 74.4336 193.792 74.4336 193.833 74.4336L196.543 74.5052C196.667 74.5052 196.788 74.5165 196.908 74.5316L199.265 74.788L201.618 74.6673C201.693 74.6673 201.769 74.6636 201.844 74.6636C201.885 74.6636 201.926 74.6636 201.968 74.6636L204.242 74.7239L206.524 74.3431C206.768 74.3017 207.016 74.2828 207.268 74.2828C207.294 74.2828 210.057 74.3318 210.057 74.3318C210.302 74.3356 210.546 74.362 210.791 74.4035L213.099 74.8256H215.166L217.643 74.5693C217.745 74.558 217.846 74.5505 217.948 74.5467L220.576 74.4525L223.203 74.264C223.312 74.2565 223.421 74.2527 223.526 74.2527C223.887 74.2527 224.252 74.2979 224.602 74.3846L226.812 74.9312L228.752 74.9576L231.203 74.7088C231.353 74.6937 231.503 74.6862 231.654 74.6862C231.703 74.6862 231.748 74.6862 231.797 74.6862L234.507 74.7729C234.548 74.7729 234.586 74.7729 234.627 74.7766L236.8 74.9048L238.98 74.509C239.176 74.4713 239.375 74.4487 239.578 74.4412L242.288 74.3168C242.356 74.3168 242.427 74.313 242.495 74.313C242.694 74.313 242.89 74.3243 243.085 74.3507L245.623 74.6862L247.859 74.8068L250.273 74.6183C250.333 74.6146 250.393 74.6108 250.457 74.607L253.167 74.5052C253.224 74.5052 253.28 74.5052 253.337 74.5052C253.509 74.5052 253.682 74.5165 253.855 74.5354L255.972 74.7804L258.092 74.4638C258.31 74.4299 258.532 74.4148 258.757 74.4148C258.776 74.4148 261.52 74.4449 261.52 74.4449C261.584 74.4449 261.644 74.4449 261.708 74.4525L264.419 74.5957C264.543 74.6032 264.663 74.6146 264.783 74.6296L266.618 74.8784L268.475 74.3997C268.843 74.3055 269.223 74.2565 269.602 74.2565C269.663 74.2565 269.723 74.2565 269.783 74.2565L272.369 74.3582C272.369 74.3582 275.001 74.3168 275.027 74.3168C275.11 74.3168 275.192 74.3168 275.275 74.3243L277.985 74.4751C278.143 74.4826 278.305 74.5015 278.459 74.5279L280.395 74.8445L282.335 74.4826C282.605 74.4336 282.88 74.4072 283.158 74.4072C283.417 74.4072 283.673 74.4299 283.929 74.4751L286.338 74.8935L288.571 74.9727L290.774 74.8822L293.157 74.4223C293.439 74.3695 293.725 74.3394 294.011 74.3394C294.244 74.3394 294.477 74.3582 294.706 74.3922L297.42 74.8181L300.014 75.2403C300.277 75.2818 300.533 75.3496 300.785 75.4363L303.22 76.292C303.371 76.3447 303.518 76.4051 303.66 76.4729L306.044 77.6038C306.389 77.7659 306.709 77.9732 307.002 78.2182L309.07 79.9484C309.483 80.2952 309.833 80.7136 310.103 81.1848L311.434 83.5369C311.652 83.9252 311.814 84.3398 311.912 84.7771L312.491 87.3441L313.115 89.8998C313.359 90.895 313.254 91.9354 312.836 92.8514L312.592 94.3365C312.585 94.3931 312.573 94.4459 312.562 94.5024L312.024 97.1448C311.844 98.0306 311.404 98.8411 310.761 99.4706L308.961 101.242L307.386 103.067C307.239 103.236 307.081 103.395 306.912 103.538L304.878 105.287C304.341 105.751 303.702 106.078 303.014 106.248L300.412 106.889C300.341 106.908 300.27 106.923 300.194 106.938L297.574 107.447C297.292 107.503 297.003 107.53 296.713 107.53C296.48 107.53 296.244 107.511 296.014 107.473L293.559 107.085L291.612 107.002L289.398 107.405C289.21 107.439 289.022 107.462 288.834 107.473L286.128 107.62C286.079 107.62 286.034 107.624 285.985 107.624C285.985 107.624 283.211 107.684 283.177 107.684C283.102 107.684 283.023 107.684 282.947 107.677L280.237 107.537C280 107.526 279.763 107.496 279.53 107.443L277.564 107.025C277.564 107.025 275.553 107.277 275.523 107.281L272.813 107.567C272.696 107.579 272.583 107.586 272.467 107.59L269.76 107.669C269.715 107.669 269.674 107.669 269.633 107.669C269.381 107.669 269.129 107.647 268.881 107.605L266.862 107.262L264.847 107.549C264.637 107.579 264.426 107.594 264.216 107.594C264.005 107.594 263.813 107.579 263.614 107.552L261.362 107.251L259.178 107.405L256.536 107.673C256.385 107.688 256.235 107.696 256.085 107.696C255.765 107.696 255.445 107.662 255.133 107.594L253.258 107.187L251.389 107.488C251.153 107.526 250.908 107.545 250.668 107.545C250.66 107.545 247.938 107.53 247.938 107.53C247.792 107.53 247.649 107.522 247.502 107.507L245.112 107.262L242.724 107.36C242.664 107.36 242.604 107.36 242.54 107.36C242.318 107.36 242.1 107.345 241.882 107.311L239.759 106.998L237.635 107.243C237.563 107.251 237.488 107.258 237.417 107.262L234.706 107.443C234.608 107.451 234.507 107.454 234.409 107.454C234.176 107.454 233.943 107.436 233.71 107.402L231.33 107.028L229.041 107.01L226.842 107.077L224.545 107.583C224.226 107.654 223.899 107.688 223.575 107.688C223.252 107.688 222.94 107.654 222.624 107.586L220.733 107.179L218.85 107.473C218.621 107.507 218.388 107.526 218.155 107.526C218.061 107.526 217.97 107.526 217.876 107.518L215.166 107.353C215.098 107.349 215.031 107.341 214.963 107.338L212.738 107.1L210.509 107.341C210.433 107.349 210.358 107.356 210.283 107.36L207.573 107.518C207.486 107.522 207.4 107.526 207.313 107.526C207.133 107.526 206.949 107.515 206.768 107.492L204.513 107.217L202.261 107.402C202.141 107.413 202.017 107.417 201.896 107.417C201.708 107.417 201.52 107.405 201.332 107.383L199.246 107.119L197.156 107.439C196.931 107.473 196.701 107.492 196.476 107.492C196.355 107.492 196.235 107.488 196.115 107.477L193.645 107.277L191.228 107.345L188.566 107.477C188.491 107.477 188.42 107.481 188.345 107.481C188.292 107.481 188.243 107.481 188.19 107.481L185.48 107.387C185.371 107.387 185.258 107.375 185.149 107.364L183.063 107.138L180.973 107.496C180.721 107.537 180.469 107.56 180.214 107.56C180.097 107.56 179.981 107.556 179.86 107.545L177.481 107.356L175.101 107.518C175 107.526 174.894 107.53 174.793 107.53C174.77 107.53 172.019 107.492 172.019 107.492L169.293 107.443C169.135 107.443 168.981 107.428 168.823 107.409L166.47 107.119L164.117 107.206C164.06 107.206 163.918 107.206 163.899 107.206L161.189 107.172C161.143 107.172 161.098 107.172 161.053 107.172L158.899 107.081L156.734 107.53C156.433 107.59 156.129 107.624 155.824 107.624C155.802 107.624 153.046 107.583 153.046 107.583C152.896 107.583 152.742 107.571 152.591 107.552L150.34 107.289L148.092 107.488C147.96 107.5 147.825 107.507 147.693 107.507C147.411 107.507 147.129 107.481 146.851 107.428L145.099 107.096L143.34 107.526C142.99 107.613 142.633 107.654 142.272 107.654C142.043 107.654 141.818 107.635 141.592 107.601L139.058 107.213L136.78 107.043L134.446 107.138L131.856 107.379C131.717 107.39 131.578 107.398 131.439 107.398C131.247 107.398 131.051 107.387 130.86 107.36L128.548 107.062C128.548 107.062 126.187 107.179 126.161 107.179L123.657 107.258L121.15 107.571C120.966 107.594 120.781 107.605 120.597 107.605C120.327 107.605 120.056 107.583 119.789 107.534L117.616 107.138L115.665 107.255L113.173 107.65C112.94 107.688 112.703 107.707 112.47 107.707C112.44 107.707 109.669 107.654 109.669 107.654C109.519 107.654 109.369 107.639 109.222 107.624L107.079 107.368L104.933 107.654C104.734 107.681 104.534 107.696 104.335 107.696C104.279 107.696 104.219 107.696 104.162 107.696L101.452 107.59C101.41 107.59 101.373 107.59 101.332 107.583L98.7791 107.417C98.7791 107.417 96.2116 107.428 96.2041 107.428C95.9936 107.428 95.7793 107.413 95.5688 107.383L93.7268 107.123L91.8698 107.586C91.5127 107.677 91.1481 107.722 90.7797 107.722C90.7721 107.722 88.0505 107.711 88.0505 107.711L88.0467 107.703Z" fill="white"/>
<path d="M213.38 295.36C212.97 295.36 212.556 295.304 212.15 295.19L209.699 294.497C208.594 294.184 207.651 293.46 207.06 292.473L205.797 290.366C205.677 290.166 205.576 289.958 205.485 289.744L204.613 287.595C204.395 287.06 204.282 286.483 204.279 285.902L204.267 283.117C204.267 282.97 204.275 282.819 204.286 282.672L204.531 280.082L204.549 277.772L204.264 275.261C204.241 275.061 204.23 274.862 204.234 274.662L204.286 271.88C204.286 271.823 204.286 271.771 204.294 271.714L204.433 269.181L204.294 266.648C204.282 266.475 204.286 266.301 204.294 266.124L204.437 263.794L204.282 262.675L203.628 262.807C203.335 262.863 203.042 262.893 202.745 262.893C202.486 262.893 202.222 262.871 201.967 262.826L201.177 262.686L201.204 263.406L201.373 266.124C201.388 266.358 201.384 266.591 201.362 266.825L201.151 269.109L201.444 271.394C201.474 271.616 201.486 271.839 201.482 272.061L201.425 274.786L201.437 277.481L201.486 280.233C201.493 280.591 201.456 280.946 201.38 281.296L200.884 283.539L200.937 285.771C200.944 286.114 200.914 286.457 200.843 286.792L200.384 289.016C200.208 289.876 199.783 290.667 199.166 291.289L197.542 292.925C196.881 293.592 196.027 294.037 195.103 294.195L192.877 294.576C192.64 294.618 192.4 294.64 192.159 294.64C192.159 294.64 189.674 294.663 189.659 294.663C188.49 294.663 187.363 294.207 186.524 293.389L184.69 291.609C183.803 290.75 183.306 289.566 183.314 288.33L183.329 286.132L183.028 283.633C183.002 283.43 182.994 283.222 182.998 283.019L183.043 280.237C183.043 280.143 183.051 280.052 183.058 279.958L183.224 277.84L182.761 275.706C182.634 275.114 182.626 274.504 182.739 273.908L183.115 271.914L182.788 269.924C182.746 269.682 182.727 269.437 182.727 269.192V266.41C182.727 266.094 182.758 265.777 182.821 265.468L183.299 263.206L183.28 262.528L181.825 262.622L179.63 262.811L179.622 263.18L180.119 265.434C180.209 265.841 180.239 266.256 180.216 266.671L180.055 269.452C180.047 269.569 180.036 269.69 180.021 269.807L179.709 272.091L179.901 274.372C179.916 274.564 179.919 274.756 179.912 274.945L179.799 277.647L179.78 280.165L179.972 282.762C179.983 282.898 179.987 283.034 179.983 283.17L179.942 285.951C179.934 286.506 179.822 287.056 179.615 287.569L178.754 289.713C178.596 290.105 178.386 290.475 178.126 290.807L176.705 292.631C176.153 293.34 175.405 293.867 174.551 294.146L172.266 294.896C171.811 295.047 171.337 295.123 170.86 295.123C170.492 295.123 170.119 295.077 169.758 294.987L167.383 294.388C166.349 294.128 165.439 293.506 164.819 292.639L163.428 290.693C163.289 290.497 163.165 290.29 163.056 290.075L161.973 287.897C161.575 287.094 161.424 286.189 161.537 285.303L161.823 283.083L161.552 280.863C161.5 280.433 161.511 279.996 161.582 279.566L161.909 277.625L161.503 275.676C161.409 275.22 161.383 274.752 161.432 274.289L161.718 271.526L161.969 268.853L162.101 266.471L161.898 263.998L161.77 262.471L160.466 262.539C160.387 262.543 160.308 262.547 160.229 262.547C160.124 262.547 160.022 262.547 159.917 262.535L158.722 262.452L158.801 263.018C158.864 263.489 158.853 263.968 158.77 264.435L158.402 266.486L158.703 268.533C158.725 268.691 158.74 268.853 158.748 269.015L158.857 271.797C158.864 272.004 158.857 272.212 158.838 272.415L158.628 274.602L158.992 276.792C159.034 277.048 159.056 277.304 159.052 277.564L159.037 280.346C159.037 280.474 159.03 280.603 159.019 280.731L158.793 283.215L158.891 285.703C158.906 286.057 158.876 286.415 158.808 286.762L158.316 289.25C158.101 290.335 157.496 291.308 156.613 291.979L154.62 293.49C154.087 293.898 153.466 294.177 152.812 294.312L150.508 294.791C150.207 294.855 149.899 294.885 149.594 294.885C149.29 294.885 148.989 294.855 148.692 294.795L146.384 294.324C145.516 294.146 144.715 293.713 144.091 293.083L142.407 291.387C141.914 290.89 141.542 290.283 141.32 289.619L140.557 287.308C140.328 286.615 140.272 285.876 140.388 285.156L140.719 283.132L140.362 281.104C140.298 280.731 140.279 280.35 140.306 279.969C140.306 279.969 140.523 277.161 140.523 277.146L140.73 274.741L140.309 269.558C140.302 269.441 140.294 269.324 140.294 269.204L140.287 266.422C140.287 266.282 140.29 266.143 140.306 266.003L140.523 263.58L140.467 262.754L138.922 262.731H137.512L137.494 263.723L137.452 266.297L137.625 268.895C137.625 268.944 137.629 268.989 137.633 269.038L137.73 271.82C137.742 272.117 137.723 272.415 137.674 272.709L137.351 274.703L137.73 276.697C137.836 277.259 137.836 277.832 137.73 278.394L137.257 280.863L137.163 282.725L137.644 284.915C137.881 285.993 137.715 287.124 137.178 288.089L135.986 290.234C135.776 290.611 135.513 290.957 135.204 291.263L133.626 292.812C133.141 293.287 132.554 293.649 131.911 293.867L129.784 294.587C129.318 294.746 128.829 294.825 128.34 294.825C127.957 294.825 127.577 294.776 127.201 294.678L124.995 294.101C124.54 293.98 124.107 293.792 123.713 293.539L121.611 292.201C120.341 291.391 119.555 290 119.521 288.488L119.465 286.114L119.262 283.449C119.251 283.313 119.247 283.173 119.251 283.038L119.284 280.569L118.976 278.096C118.95 277.9 118.938 277.7 118.942 277.5C118.942 277.5 118.965 274.673 118.965 274.654L119.025 271.872C119.025 271.839 119.138 269.328 119.138 269.328L118.878 266.889C118.833 266.456 118.848 266.015 118.927 265.585L119.36 263.237L119.352 262.483L117.694 262.449L116.277 262.468L115.991 263.832L116.239 265.871C116.281 266.214 116.285 266.561 116.247 266.904L115.984 269.317L116.104 271.537L116.469 274.127C116.51 274.424 116.521 274.722 116.506 275.02L116.36 277.546L116.499 280.071C116.525 280.516 116.484 280.961 116.378 281.394L115.939 283.215L116.288 285.024C116.405 285.62 116.397 286.234 116.273 286.826L115.751 289.287C115.506 290.445 114.818 291.459 113.837 292.115L111.789 293.483C111.563 293.634 111.326 293.762 111.078 293.871L108.871 294.829C108.3 295.077 107.691 295.198 107.082 295.198C106.39 295.198 105.699 295.04 105.064 294.719L102.928 293.645C102.658 293.509 102.402 293.347 102.161 293.159L100.35 291.734C99.5789 291.127 99.0263 290.283 98.7745 289.333L98.173 287.048C98.1015 286.773 98.0527 286.487 98.0339 286.2L97.8422 283.415C97.8196 283.087 97.8309 282.759 97.8797 282.438L98.188 280.361L97.8422 278.284C97.8121 278.111 97.7933 277.934 97.7857 277.757L97.6505 274.975C97.6354 274.692 97.6504 274.409 97.688 274.13L98.0226 271.733L97.9474 269.452L97.7294 266.784C97.6956 266.388 97.7181 265.992 97.7895 265.6L98.1428 263.666L97.9437 262.648L96.3949 262.626C96.2708 262.626 96.1505 262.618 96.0303 262.607L95.1355 262.52L95.1656 263.493C95.1656 263.568 95.1656 263.647 95.1656 263.723L95.113 266.505C95.1093 266.727 95.0867 266.953 95.0491 267.172L94.692 269.298L94.9589 271.416C95.0115 271.827 95.0077 272.242 94.9438 272.653L94.5942 274.997L94.7033 277.338C94.7033 277.406 94.707 277.47 94.707 277.538V280.075L94.989 282.612C95.004 282.744 95.0115 282.876 95.0153 283.008L95.0754 285.789C95.0867 286.283 95.0153 286.777 94.8686 287.252L94.1356 289.574C93.9514 290.154 93.6544 290.69 93.2597 291.153L91.6621 293.023C90.9704 293.833 90.0156 294.373 88.9668 294.546L86.5535 294.942C86.3129 294.983 86.0685 295.002 85.8241 295.002C85.6324 295.002 85.4408 294.991 85.2528 294.964L82.7905 294.648C81.6102 294.497 80.5351 293.882 79.8058 292.94L78.2796 290.976C77.7646 290.317 77.445 289.525 77.3548 288.692L77.1292 286.641L76.5541 284.112C76.4225 283.543 76.4075 282.951 76.5015 282.374L76.8925 279.988L76.8586 277.824L76.5729 275.254C76.5278 274.854 76.5391 274.447 76.5992 274.051L76.9676 271.699L76.8849 269.385L76.7496 266.629C76.7458 266.539 76.742 266.448 76.7458 266.354C76.7458 266.354 76.7797 263.531 76.7797 263.508L76.8511 260.756L76.8849 258.178L76.7195 255.547C76.7082 255.385 76.7082 255.223 76.7157 255.061L76.836 252.343L76.8548 249.648V247.269L76.5165 244.872C76.4564 244.434 76.4601 243.993 76.5277 243.556L76.8247 241.649L76.4413 239.738C76.3022 239.048 76.3286 238.339 76.5128 237.661L77.0578 235.655L76.9639 233.782L76.7119 231.188C76.7044 231.098 76.697 231.004 76.6932 230.913L76.5955 228.214C76.5842 227.916 76.603 227.619 76.6518 227.321L77.0353 224.976L77.0428 223.114L76.5729 220.886C76.5052 220.566 76.4714 220.238 76.4752 219.91L76.4977 217.211C76.4977 217.015 76.5127 216.819 76.5428 216.627L76.8473 214.44L76.6518 212.258C76.6255 211.975 76.6293 211.689 76.6518 211.406L76.8887 209.001L76.8172 206.811L76.5015 204.323C76.4413 203.852 76.4563 203.373 76.5466 202.906L76.9639 200.727L76.8774 198.797L76.509 196.332C76.4489 195.925 76.4413 195.514 76.494 195.103L76.8134 192.528L76.9827 190.041L77.0616 187.492V185.14L76.7684 182.716C76.7533 182.584 76.742 182.453 76.7383 182.321L76.6481 179.622C76.6443 179.456 76.6481 179.29 76.6593 179.124L76.821 177.002L76.4413 174.872C76.3849 174.559 76.3624 174.243 76.3736 173.926L76.4639 171.231C76.4639 171.17 76.4676 171.106 76.4752 171.046L76.6744 168.377L76.8059 166.195L76.4639 163.978C76.4188 163.688 76.4038 163.394 76.415 163.1L76.524 160.401C76.5353 160.164 76.5617 159.926 76.6105 159.692L77.0428 157.544L76.9488 155.591L76.6217 153.073C76.5616 152.617 76.5729 152.153 76.6518 151.701L76.9827 149.828L76.6217 147.95C76.5766 147.724 76.5503 147.494 76.5428 147.264L76.4413 144.565C76.4338 144.369 76.4413 144.173 76.4563 143.977L76.697 141.361L76.8398 138.749C76.8398 138.689 76.8473 138.632 76.8548 138.572L77.0767 136.208L76.9526 133.928L76.4714 128.613C76.4488 128.379 76.4488 128.145 76.4639 127.916L76.6292 125.349L76.6481 122.947L76.4789 120.414C76.4714 120.305 76.4676 120.196 76.4676 120.086L76.4827 117.387C76.4827 117.157 76.5014 116.931 76.539 116.705L76.8812 114.538L76.5015 109.679C76.5015 109.634 76.494 109.588 76.494 109.543L76.3624 106.844C76.3548 106.693 76.3548 106.543 76.3624 106.392L76.494 103.862L76.4338 101.333C76.4262 101.035 76.4489 100.738 76.5015 100.44L76.9676 97.7936L77.2946 95.1625C77.3285 94.8797 77.3924 94.6046 77.4788 94.3332L78.3246 91.7021C78.3359 91.6681 78.3472 91.6342 78.3585 91.6003L79.2644 89.0031C79.2794 88.9654 79.2908 88.9277 79.3058 88.8862L80.2869 86.2966C80.4335 85.9121 80.629 85.5502 80.8733 85.2185L82.5161 82.987C82.5424 82.9531 82.5687 82.9191 82.5951 82.8852L84.2829 80.7253C84.3205 80.6763 84.3619 80.6273 84.4032 80.5783L86.1813 78.49C86.2753 78.3807 86.373 78.2751 86.4745 78.1771L88.4518 76.2622C88.6436 76.0737 88.854 75.9041 89.0796 75.7571C89.0796 75.7571 91.3914 74.2041 91.4027 74.1965L93.6996 72.6925C93.8575 72.5907 94.0191 72.4965 94.1882 72.4136L96.658 71.2036C96.8497 71.1093 97.0452 71.0302 97.2482 70.9661L99.6954 70.1707L102.116 69.1718C102.661 68.9456 103.244 68.8326 103.83 68.8326C103.861 68.8326 106.481 68.8816 106.481 68.8816C106.481 68.8816 109.056 68.6667 109.09 68.6629L111.762 68.5046L114.431 68.2822C114.514 68.2747 114.6 68.2709 114.683 68.2671L117.408 68.1917C117.45 68.1917 117.491 68.1917 117.533 68.1917C117.89 68.1917 118.243 68.2332 118.589 68.3161L120.668 68.8175L122.728 68.7006C122.81 68.6968 122.897 68.6931 122.98 68.6931C123.07 68.6931 123.16 68.6931 123.25 68.7006L125.641 68.8439L128.032 68.6328C128.163 68.6215 128.295 68.6139 128.423 68.6139C128.539 68.6139 128.656 68.6177 128.772 68.629L130.934 68.7986L133.103 68.4254C133.328 68.3878 133.558 68.3651 133.791 68.3614C133.791 68.3614 136.565 68.3161 136.591 68.3161C136.783 68.3161 136.971 68.3274 137.159 68.3538L139.43 68.6441L141.696 68.4707C141.809 68.4631 141.926 68.4594 142.038 68.4594C142.132 68.4594 142.226 68.4594 142.32 68.4669L144.7 68.6177L147.083 68.4028C147.219 68.3915 147.35 68.384 147.485 68.384C147.658 68.384 147.831 68.3953 148.004 68.4141L150.124 68.6629L152.245 68.335C152.436 68.3048 152.632 68.2897 152.827 68.2822C152.827 68.2822 155.616 68.2181 155.65 68.2181C155.876 68.2181 156.105 68.237 156.331 68.2709L158.447 68.5951L160.564 68.3425C160.74 68.3199 160.917 68.3124 161.097 68.3124C161.146 68.3124 161.195 68.3124 161.248 68.3124L163.969 68.4028C164.108 68.4066 164.244 68.4179 164.379 68.4368L166.699 68.727L168.935 68.6026L171.578 68.3614C171.713 68.3501 171.849 68.3425 171.984 68.3425C172.198 68.3425 172.412 68.3576 172.627 68.3877L174.916 68.7195L176.931 68.6177L179.389 68.1955C179.641 68.154 179.893 68.1314 180.149 68.1314C180.51 68.1314 180.87 68.1767 181.224 68.2596L183.04 68.7044L184.84 68.3991C185.088 68.3576 185.34 68.335 185.588 68.335C185.757 68.335 185.927 68.3463 186.096 68.3651L188.389 68.6252L190.682 68.4481C190.787 68.4405 190.892 68.4368 190.994 68.433L193.689 68.4141C193.689 68.4141 196.445 68.3614 196.471 68.3614C196.576 68.3614 196.678 68.3614 196.783 68.3727L199.369 68.5536L201.899 68.5762C201.899 68.5762 204.613 68.5348 204.64 68.5348C204.752 68.5348 204.865 68.5385 204.978 68.5461L207.403 68.7308L209.658 68.6026L212.214 68.2634C212.41 68.237 212.609 68.2257 212.808 68.2257C212.823 68.2257 215.575 68.252 215.575 68.252C215.673 68.252 215.774 68.2558 215.872 68.2634L221.078 68.6592L223.563 68.5875L226.262 68.4971C226.315 68.4971 226.364 68.4971 226.416 68.4971C226.45 68.4971 228.83 68.5498 228.83 68.5498L231.145 68.1767C231.382 68.139 231.623 68.1201 231.86 68.1201C232.085 68.1201 232.307 68.1352 232.529 68.1691L234.75 68.5046L236.968 68.3387L239.712 68.1465C239.818 68.139 239.919 68.1352 240.024 68.1352C240.201 68.1352 240.378 68.1465 240.555 68.1653L242.84 68.4368L245.126 68.2634C245.238 68.2558 245.355 68.2483 245.468 68.2483C245.742 68.2483 246.017 68.2747 246.283 68.3237L248.216 68.6818L250.148 68.3501C250.4 68.3048 250.655 68.286 250.915 68.286C250.945 68.286 253.73 68.3425 253.73 68.3425C253.854 68.3425 253.978 68.3538 254.102 68.3651L256.7 68.6365L259.335 68.7232C259.685 68.7345 260.034 68.7873 260.373 68.8816L263.064 69.6166C263.508 69.7372 263.929 69.9257 264.316 70.1745L266.271 71.4335L268.383 72.2062C268.602 72.2854 268.816 72.3834 269.019 72.4965L271.432 73.8309C271.661 73.9591 271.88 74.1061 272.083 74.2719L274.229 76.0059C274.263 76.0323 274.297 76.0587 274.327 76.0888L276.421 77.8831C276.642 78.0716 276.845 78.2864 277.03 78.5164L278.668 80.5971L280.409 82.5987C280.556 82.7684 280.691 82.9493 280.811 83.1378L282.3 85.4749C282.368 85.5804 282.431 85.6897 282.488 85.8028L283.781 88.2643C283.834 88.3623 283.883 88.4641 283.928 88.5696L285.04 91.1366C285.27 91.6681 285.397 92.2411 285.412 92.8178L285.473 95.0456L286.108 97.1301C286.239 97.5598 286.303 98.0084 286.303 98.457L286.296 101.235C286.296 101.318 286.296 101.401 286.288 101.484L286.157 103.776L286.45 106.071C286.465 106.184 286.476 106.301 286.48 106.414L286.615 109.121C286.634 109.517 286.604 109.916 286.521 110.301L286.029 112.593L285.976 114.602L286.206 117.033L286.472 119.713C286.484 119.826 286.491 119.939 286.495 120.052L286.563 122.759C286.566 122.917 286.563 123.076 286.551 123.23L286.345 125.793L286.3 128.36C286.3 128.409 286.3 128.455 286.296 128.504L286.172 130.976L286.3 133.381L286.518 136.02C286.529 136.137 286.533 136.254 286.533 136.374L286.544 139.081C286.544 139.243 286.536 139.409 286.518 139.571L286.262 142.036L286.27 144.373L286.42 146.955C286.42 147.023 286.427 147.091 286.427 147.159L286.458 149.733L286.634 152.308C286.653 152.564 286.649 152.824 286.623 153.081L286.378 155.482L286.458 157.883C286.461 158.049 286.458 158.215 286.446 158.381L286.273 160.623L286.559 162.87C286.612 163.292 286.608 163.718 286.54 164.14L286.236 166.093L286.585 168.049C286.698 168.668 286.679 169.305 286.529 169.915L286.078 171.777L286.337 173.624C286.382 173.937 286.394 174.254 286.371 174.567L286.198 177.055L286.262 179.543C286.266 179.731 286.262 179.919 286.239 180.108L286.01 182.392L286.194 184.545L286.566 187.119C286.615 187.462 286.627 187.809 286.597 188.156L286.367 190.859L286.149 193.26L286.277 195.634L286.431 198.322C286.435 198.394 286.439 198.465 286.439 198.533L286.469 201.236C286.469 201.473 286.454 201.707 286.42 201.941L286.059 204.399L285.969 206.803L285.931 209.284L286.089 211.809C286.097 211.922 286.1 212.036 286.097 212.152L286.067 214.701C286.067 214.701 286.209 217.283 286.209 217.298L286.33 220C286.341 220.291 286.33 220.585 286.285 220.871L286.01 222.711L286.45 224.565C286.578 225.112 286.608 225.677 286.529 226.231L286.176 228.798L286.025 230.781L286.412 232.911C286.446 233.103 286.469 233.299 286.48 233.495L286.612 236.198C286.619 236.326 286.619 236.458 286.612 236.586C286.612 236.586 286.51 239.353 286.506 239.387L286.348 242.09C286.348 242.154 286.341 242.218 286.333 242.282L286.097 244.623L286.236 246.96L286.405 249.651C286.424 249.975 286.409 250.3 286.36 250.62L286.07 252.524L286.461 254.435C286.514 254.687 286.544 254.944 286.551 255.2L286.638 257.914C286.653 258.378 286.597 258.834 286.472 259.275L286.566 260.47C286.604 260.93 286.567 261.393 286.465 261.842L285.973 263.998C285.973 263.998 286.097 266.199 286.097 266.233C286.097 266.233 286.198 269.075 286.198 269.106L286.243 271.888C286.243 271.94 286.243 271.993 286.243 272.046L286.194 274.632L286.367 277.218C286.382 277.444 286.382 277.666 286.364 277.892L286.172 280.237L286.435 282.582C286.454 282.736 286.461 282.894 286.465 283.049L286.488 285.831C286.491 286.43 286.379 287.026 286.153 287.584L285.221 289.868C285.059 290.268 284.837 290.641 284.567 290.98L283.037 292.895C282.465 293.615 281.687 294.139 280.807 294.403L278.39 295.126C277.966 295.255 277.529 295.315 277.097 295.315C276.353 295.315 275.612 295.13 274.947 294.768L272.789 293.592C272.582 293.479 272.383 293.347 272.191 293.204L270.338 291.775C269.459 291.101 268.861 290.121 268.654 289.031L268.214 286.705C268.196 286.607 268.18 286.513 268.169 286.415L267.827 283.629C267.771 283.158 267.786 282.68 267.876 282.212L268.274 280.169L267.993 278.137C267.94 277.764 267.936 277.383 267.977 277.006L268.226 274.79L267.917 272.57C267.853 272.121 267.861 271.665 267.932 271.217L268.233 269.377L267.756 267.519C267.579 266.836 267.564 266.12 267.714 265.43L268.109 263.598L267.895 262.596L265.188 262.501L265.248 263.259C265.26 263.425 265.263 263.595 265.26 263.76L265.083 269.06L265.293 271.582C265.331 272.027 265.301 272.476 265.207 272.909L264.726 275.141L264.797 277.169L265.106 279.762C265.117 279.849 265.124 279.939 265.128 280.026L265.293 282.808C265.312 283.109 265.301 283.411 265.26 283.709L264.869 286.491C264.831 286.769 264.763 287.045 264.673 287.312L263.929 289.521C263.767 289.996 263.53 290.441 263.226 290.837L261.767 292.729C261.027 293.69 259.929 294.312 258.726 294.455L256.366 294.734C256.189 294.753 256.012 294.765 255.839 294.765C255.666 294.765 255.478 294.753 255.302 294.734L252.941 294.452C251.93 294.331 250.99 293.867 250.272 293.144L248.558 291.406C248.043 290.886 247.663 290.249 247.453 289.548L246.731 287.192C246.52 286.502 246.479 285.774 246.603 285.066L247.016 282.766L246.93 280.523L246.768 277.877L246.498 275.182C246.456 274.779 246.471 274.372 246.539 273.972L246.866 272.053L246.449 270.131C246.34 269.622 246.317 269.094 246.385 268.574L246.674 266.384L246.385 264.194C246.325 263.738 246.336 263.274 246.415 262.818L246.426 262.754L246.186 262.807C245.866 262.878 245.535 262.916 245.208 262.916C245.144 262.916 245.081 262.916 245.017 262.912L244.066 262.871V263.595C244.066 263.734 244.066 263.877 244.051 264.017L243.799 266.799C243.791 266.867 243.784 266.931 243.776 266.998L243.449 269.422L243.509 271.842L243.573 274.541C243.573 274.541 243.746 277.3 243.75 277.334L243.863 280.116C243.878 280.456 243.851 280.791 243.791 281.127L243.404 283.211L243.667 285.292C243.772 286.11 243.648 286.939 243.318 287.693L242.381 289.815C242.291 290.019 242.186 290.219 242.066 290.407L240.788 292.431C240.22 293.332 239.352 294.003 238.337 294.324L235.95 295.077C235.51 295.217 235.051 295.288 234.589 295.288C234.243 295.288 233.901 295.251 233.562 295.172L231.074 294.591C229.867 294.308 228.83 293.539 228.202 292.465L226.95 290.313C226.773 290.011 226.634 289.691 226.533 289.355L225.871 287.192C225.725 286.717 225.661 286.219 225.676 285.718L225.747 283.486L225.27 281.243C225.168 280.768 225.146 280.278 225.198 279.796L225.458 277.485L225.232 275.174C225.198 274.828 225.206 274.477 225.251 274.134L225.604 271.495L225.747 269.422L225.349 267.194C225.262 266.716 225.255 266.229 225.322 265.747L225.612 263.738L225.409 262.735L224.3 262.822C224.183 262.829 224.067 262.837 223.954 262.837C223.841 262.837 223.714 262.833 223.593 262.822L222.559 262.739C222.559 262.739 222.601 263.357 222.601 263.372L222.751 266.154C222.759 266.29 222.759 266.429 222.751 266.565L222.65 269.264V271.921L222.699 274.662C222.702 274.929 222.684 275.193 222.642 275.457L222.251 277.907L222.229 280.226L222.353 282.879C222.356 282.966 222.36 283.053 222.356 283.143L222.326 285.925C222.326 286.272 222.277 286.615 222.199 286.954L221.642 289.231C221.402 290.211 220.845 291.082 220.056 291.704L218.251 293.129C218.086 293.257 217.913 293.377 217.736 293.483L215.605 294.731C214.91 295.138 214.12 295.349 213.327 295.349L213.38 295.36Z" fill="white"/>
<path d="M308.555 90.9937L308.122 93.6059L307.585 96.2483L305.653 98.1482L303.957 100.112L301.927 101.861L299.326 102.502L296.706 103.011L293.999 102.585L291.293 102.468L288.582 102.962L285.876 103.109L283.165 103.169L280.459 103.03L277.748 102.457L275.038 102.796L272.332 103.086L269.621 103.162L266.915 102.702L264.204 103.086L261.498 102.724L258.787 102.913L256.077 103.188L253.367 102.6L250.66 103.037L247.95 103.026L245.243 102.747L242.533 102.86L239.826 102.46L237.116 102.77L234.405 102.95L231.695 102.525L228.989 102.502L226.278 102.585L223.568 103.18L220.858 102.596L218.151 103.018L215.441 102.852L212.73 102.562L210.02 102.856L207.313 103.015L204.603 102.683L201.893 102.901L199.182 102.562L196.472 102.977L193.762 102.758L191.051 102.834L188.345 102.966L185.634 102.875L182.924 102.581L180.214 103.045L177.503 102.83L174.793 103.018L172.083 102.981L169.372 102.932L166.662 102.596L163.951 102.698L161.245 102.664L158.535 102.547L155.824 103.109L153.114 103.067L150.403 102.751L147.693 102.988L144.983 102.476L142.272 103.135L139.566 102.721L136.855 102.521L134.145 102.626L131.435 102.883L128.724 102.532L126.014 102.664L123.308 102.751L120.593 103.086L117.887 102.592L115.176 102.754L112.466 103.184L109.752 103.131L107.042 102.807L104.331 103.169L101.621 103.064L98.9106 102.886L96.1965 102.898L93.4862 102.513L90.7759 103.192L88.0656 103.18L85.3515 102.984L82.641 103.007L79.9307 102.679L77.2166 102.694L74.5063 102.852L71.7959 102.502L69.0781 103.147L66.364 103.09L63.7776 102.351L61.4018 101.326L58.9133 100.361L57.1052 98.3969L55.8571 96.0674L54.8609 93.6248L54.4775 90.9937H54.2896L54.8084 88.3475L56.0113 85.9916L57.3683 83.7977L59.1915 81.9695L61.0974 80.0245L63.7213 79.3836L66.364 79.1462L69.0743 79.1499L71.7809 79.5193L74.4875 79.2178L77.1978 79.1952L79.9044 78.8257L82.6148 79.067L85.3251 79.3836L88.0317 79.2479L90.742 78.7956L93.4486 78.8144L96.159 79.1876L98.8656 79.3949L101.576 79.1688L104.282 79.3045L106.993 78.8484L109.703 78.7843L112.414 79.263L115.12 78.9125L117.83 79.4741L120.537 79.4703L123.247 79.067L125.958 79.1914L128.668 78.8936L131.375 79.4892L134.085 79.2065L136.792 79.1612L139.502 79.018L142.212 79.3761L144.923 79.2932L147.633 78.8785L150.34 79.493L153.05 79.3836L155.76 79.459L158.471 79.0557L161.181 78.8634L163.888 78.8031L166.598 78.8936L169.308 79.0218L172.019 79.1575L174.729 79.4779L177.439 79.2253L180.15 79.3233L182.856 78.871L185.567 79.3158L188.277 79.0293L190.987 79.2253L193.698 78.9615L196.408 79.0331L199.118 79.3271L201.829 79.1914L204.539 79.263L207.249 78.8107L209.96 78.8597L212.67 79.3572H215.38L218.091 79.0745L220.801 78.9765L223.508 78.7805L226.218 79.4477L228.928 79.4892L231.635 79.214L234.345 79.3007L237.056 79.459L239.766 78.9652L242.476 78.8408L245.187 79.2027L247.897 79.3497L250.607 79.1349L253.318 79.0331L256.028 79.3497L258.738 78.9464L261.453 78.9765L264.163 79.1198L266.873 79.4892L269.584 78.7843L272.298 78.8936L275.008 78.8521L277.718 79.0029L280.429 79.4439L283.143 78.9388L285.853 79.41L288.564 79.508L291.278 79.3987L293.992 78.871L296.706 79.2969L299.273 79.7153L301.713 80.571L304.096 81.7019L306.16 83.4321L307.495 85.7842L308.081 88.389L308.713 90.9824L308.555 90.9937Z" fill="#70220B"/>
<path d="M281.832 101.231L281.839 98.4533L281.027 95.7807L280.952 92.9423L279.836 90.3753L278.546 87.91L277.058 85.5767L275.242 83.4922L273.535 81.3247L271.441 79.5304L269.295 77.7965L266.882 76.4583L264.299 75.5159L261.923 73.9855L259.232 73.2505L256.439 73.1562L253.683 72.8697L250.962 72.8132L248.24 73.2844L245.518 72.7831L242.797 72.9904L240.075 72.6662L237.353 72.8584L234.632 73.062L231.91 72.6511L229.189 73.0884L226.463 73.0281L223.742 73.1185L221.02 73.1977L218.298 72.9904L215.577 72.7831L212.855 72.7567L210.134 73.1185L207.412 73.2769L204.69 73.0695L201.965 73.111L199.243 73.0884L196.522 72.8999L193.8 72.9527L191.078 72.9715L188.353 73.1826L185.635 72.8735L182.913 73.3334L180.192 72.6662L177.47 73.1298L174.749 73.2693L172.027 72.8773L169.305 73.1261L166.584 73.2731L163.862 72.9338L161.14 72.8434L158.415 73.1675L155.693 72.7529L152.972 72.8132L150.25 73.2316L147.525 72.915L144.803 73.16L142.078 72.9866L139.356 73.1977L136.631 72.8471L133.909 72.8961L131.188 73.3636L128.462 73.1487L125.741 73.3899L123.015 73.2241L120.29 73.3786L117.568 72.719L114.843 72.7944L112.117 73.0243L109.392 73.1864L106.659 73.4126L103.862 73.3598L101.284 74.4228L98.671 75.2709L96.2012 76.4809L93.9044 77.985L91.6188 79.5191L89.6452 81.434L87.8634 83.5223L86.1755 85.6823L84.5328 87.9138L83.5517 90.5072L82.6457 93.1006L81.7998 95.7317L81.4578 98.4759L80.9691 101.231L81.033 103.93L80.8939 106.629L81.0255 109.325L81.236 112.023L81.4465 114.722L81.018 117.418L81.003 120.117L81.1834 122.816L81.1646 125.514L80.9917 128.21L81.2322 130.909L81.4766 133.608L81.6269 136.307L81.3751 139.002L81.2284 141.701L80.9804 144.4L81.0819 147.099L81.6044 149.798L81.1269 152.493L81.4766 155.192L81.6081 157.891L81.0631 160.59L80.954 163.289L81.3676 165.987L81.206 168.686L81.003 171.385L80.9127 174.081L81.3939 176.776L81.1871 179.475L81.2774 182.174L81.6044 184.869V187.568L81.5217 190.267L81.3412 192.966L81.0067 195.661L81.4089 198.36L81.5292 201.059L81.0142 203.758L81.3525 206.457L81.4427 209.156L81.1759 211.855L81.4164 214.554L81.0443 217.253L81.018 219.952L81.5894 222.654L81.5781 225.353L81.1382 228.052L81.2322 230.751L81.4954 233.45L81.6307 236.149L80.8977 238.852L81.4352 241.547L81.018 244.25L81.3902 246.952L81.3977 249.655L81.3789 252.456L81.2548 255.26L81.4315 258.065L81.3939 260.847L81.3224 263.625L81.2887 266.407L81.4239 269.189L81.5254 271.971L81.0894 274.752L81.3977 277.534L81.4427 280.316L80.9879 283.098L81.6194 285.884L81.8751 288.191L83.4012 290.155L85.8635 290.471L88.2769 290.075L89.8745 288.206L90.6038 285.884L90.5436 283.102L90.2392 280.324L90.2317 277.542L90.1038 274.76L90.5174 271.978L90.1677 269.196L90.6338 266.414L90.6865 263.632L90.5963 260.847L90.6188 258.231L93.4758 257.809L96.4869 258.095L99.4979 258.136L102.321 258.268L102.22 260.847L102.765 263.625L102.257 266.407L102.483 269.189L102.573 271.971L102.186 274.752L102.321 277.534L102.783 280.316L102.37 283.098L102.562 285.884L103.163 288.168L104.975 289.597L107.114 290.667L109.317 289.714L111.366 288.345L111.888 285.884L111.347 283.102L112.023 280.324L111.869 277.542L112.031 274.76L111.636 271.978L111.486 269.196L111.787 266.414L111.452 263.632L112.035 260.847L111.463 257.79L114.73 257.963L117.741 257.922L120.752 257.982L123.996 257.812L123.876 260.847L123.906 263.625L123.391 266.407L123.688 269.189L123.564 271.971L123.504 274.752L123.481 277.534L123.827 280.316L123.786 283.098L124 285.884L124.057 288.379L126.162 289.721L128.368 290.298L130.496 289.578L132.071 288.029L133.263 285.884L132.654 283.102L132.793 280.324L133.323 277.542L132.797 274.76L133.251 271.978L133.154 269.196L132.966 266.414L133.011 263.632L133.067 260.847L133.191 258.302L135.984 258.197L138.992 258.208L142.003 258.253L145.01 258.069L144.886 260.847L145.078 263.625L144.83 266.407L144.837 269.189L145.063 271.971L145.288 274.752L145.048 277.534L144.833 280.316L145.322 283.098L144.867 285.884L145.63 288.194L147.314 289.891L149.622 290.362L151.923 289.883L153.915 288.372L154.408 285.884L154.299 283.102L154.547 280.324L154.566 277.542L154.1 274.76L154.37 271.978L154.261 269.196L153.848 266.414L154.348 263.632L153.968 260.847L153.991 257.809L157.235 257.812L160.246 258.02L163.257 257.861L166.328 258.001L166.178 260.847L166.411 263.625L166.64 266.407L166.486 269.189L166.223 271.971L165.937 274.752L166.516 277.534L166.05 280.316L166.384 283.098L166.027 285.884L167.11 288.062L168.501 290.008L170.877 290.607L173.162 289.857L174.583 288.029L175.444 285.884L175.485 283.102L175.279 280.324L175.297 277.542L175.418 274.76L175.181 271.978L175.564 269.196L175.726 266.414L175.113 263.632L175.17 260.847L175.688 258.295L178.489 258.374L181.496 258.118L184.507 257.922L187.571 258.008L187.759 260.847L187.83 263.625L187.244 266.407L187.248 269.189L187.703 271.971L187.18 274.752L187.782 277.534L187.564 280.316L187.518 283.098L187.849 285.884L187.834 288.368L189.669 290.151L192.127 290.124L194.349 289.744L195.973 288.108L196.431 285.884L196.367 283.102L196.984 280.324L196.935 277.542L196.924 274.76L196.98 271.978L196.623 269.196L196.879 266.414L196.702 263.632L196.608 260.847L196.676 258.001L199.743 257.846L202.75 258.374L205.762 257.771L209.021 257.793L208.588 260.847L208.976 263.625L208.803 266.407L208.953 269.189L208.803 271.971L208.75 274.752L209.07 277.534L209.047 280.316L208.784 283.098L208.791 285.884L209.667 288.032L210.93 290.139L213.381 290.837L215.513 289.585L217.317 288.16L217.874 285.884L217.904 283.102L217.772 280.324L217.798 277.542L218.242 274.76L218.193 271.978L218.189 269.196L218.295 266.414L218.144 263.632L217.964 260.847L218.227 258.325L220.994 258.084L224.005 258.329L227.016 258.095L230.121 257.963L229.681 260.847L230.241 263.625L229.843 266.407L230.343 269.189L230.147 271.971L229.775 274.752L230.046 277.534L229.734 280.316L230.328 283.098L230.234 285.884L230.895 288.047L232.147 290.204L234.636 290.784L237.023 290.03L238.301 288.006L239.237 285.884L238.883 283.102L239.398 280.324L239.286 277.542L239.109 274.76L239.045 271.978L238.977 269.196L239.353 266.414L239.605 263.632L239.598 260.847L239.21 258.035L242.248 258.287L245.255 258.415L248.266 257.744L251.492 257.831L251.394 260.847L250.905 263.625L251.27 266.407L250.905 269.189L251.507 271.971L251.037 274.752L251.315 277.534L251.484 280.316L251.593 283.098L251.093 285.884L251.811 288.243L253.529 289.981L255.886 290.264L258.247 289.985L259.705 288.093L260.45 285.884L260.841 283.102L260.675 280.324L260.341 277.542L260.243 274.76L260.841 271.978L260.611 269.196L260.702 266.414L260.796 263.632L260.581 260.847L260.393 257.956L263.502 257.937L266.513 258.042L269.524 258.148L272.299 258.325L272.175 260.847L272.765 263.625L272.167 266.407L272.881 269.189L272.426 271.971L272.814 274.752L272.498 277.534L272.885 280.316L272.344 283.098L272.686 285.884L273.126 288.209L274.979 289.634L277.14 290.81L279.557 290.087L281.087 288.168L282.02 285.884L281.997 283.102L281.685 280.324L281.911 277.542L281.727 274.76L281.779 271.978L281.734 269.196L281.636 266.414L281.478 263.632L282.114 260.847L281.892 258.069L282.17 258.076L282.087 255.362L281.535 252.659L281.948 249.953L281.779 247.254L281.617 244.547L281.892 241.845L282.05 239.142L282.147 236.439L282.012 233.737L281.523 231.034L281.73 228.327L282.106 225.625L281.463 222.922L281.866 220.219L281.745 217.516L281.595 214.814L281.629 212.107L281.46 209.404L281.497 206.702L281.599 203.999L281.997 201.293L281.967 198.59L281.813 195.887L281.666 193.184L281.911 190.478L282.14 187.775L281.749 185.072L281.516 182.366L281.787 179.663L281.723 176.96L281.907 174.258L281.527 171.555L282.185 168.852L281.7 166.15L282.121 163.447L281.775 160.74L281.986 158.038L281.899 155.335L282.174 152.632L281.986 149.926L281.952 147.223L281.798 144.52L281.79 141.814L282.072 139.111L282.061 136.405L281.839 133.702L281.696 130.995L281.832 128.289L281.881 125.586L282.099 122.88L282.031 120.177L281.76 117.47L281.505 114.768L281.576 112.061L282.159 109.355L282.023 106.648L281.678 103.942L281.832 101.231Z" fill="#76D4D3"/>
<path d="M281.655 224.496L279.11 224.383L276.403 224.447L273.693 224.974L270.983 224.435L268.272 224.465L265.562 224.484L262.855 224.379L260.145 224.349L257.438 224.737L254.728 224.989L252.018 224.884L249.307 224.79L246.597 224.571L243.89 224.756L241.18 224.677L238.47 224.522L235.759 224.334L233.049 224.91H230.342L227.632 224.379L224.922 224.793L222.211 224.688L219.501 224.416L216.791 224.454L214.084 224.759L211.374 224.827L208.663 224.454L205.953 224.959L203.243 224.967L200.532 225.016L197.822 224.586L195.112 224.729L192.401 224.545L189.691 224.661L186.981 224.922L184.27 224.744L181.56 224.918L178.85 224.729L176.139 224.767L173.429 224.658L170.719 224.499L168.008 224.861L165.298 224.665L162.588 224.937L159.877 224.944L157.167 224.801L154.46 224.91L151.75 224.895L149.04 224.891L146.329 224.352L143.619 224.511L140.909 224.68L138.198 224.914L135.488 224.865L132.778 224.903L130.067 224.518L127.357 224.929L124.646 224.982L121.936 224.401L119.222 224.771L116.512 224.933L113.801 224.888L111.087 224.993L108.377 224.597L105.666 224.643L102.956 224.364L100.242 224.605L97.5317 224.307L94.8214 224.639L92.1073 225.023L89.3969 224.808L86.6828 224.688L83.9687 224.575L81.5064 224.401L81.138 222.064L81.3373 219.463L81.1042 216.859L81.4613 214.25L81.2133 211.604L83.9611 211.958L86.6715 211.498L89.3819 211.774L92.0885 211.668L94.7988 211.879L97.5091 211.717L100.219 211.811L102.926 211.996L105.636 211.955L108.343 211.423L111.053 211.683L113.764 211.596L116.474 212.019L119.184 211.525L121.891 211.74L124.601 211.657L127.312 211.71L130.022 211.823L132.732 211.672L135.443 211.389L138.149 211.544L140.86 211.808L143.57 211.589L146.28 211.608L148.991 211.547L151.701 212.004L154.411 211.382L157.122 211.529L159.832 211.468L162.539 211.627L165.253 211.449L167.959 211.751L170.67 211.649L173.38 211.627L176.09 211.487L178.801 211.875L181.511 211.913L184.221 211.397L186.932 211.894L189.642 211.28L192.353 211.955L195.063 211.932L197.773 211.51L200.483 212.019L203.198 211.415L205.904 211.461L208.615 211.532L211.325 212.007L214.035 211.619L216.742 211.634L219.452 211.694L222.163 211.581L224.873 211.8L227.583 211.28L230.294 211.687L233.004 211.826L235.714 211.743L238.428 211.736L241.139 211.382L243.849 211.898L246.559 211.996L249.274 211.608L251.984 211.51L254.694 211.627L257.408 211.623L260.119 211.962L262.829 211.442L265.539 211.581L268.253 211.97L270.964 211.985L273.674 211.687L276.388 211.57L279.102 211.302L281.816 211.649L281.73 214.25L281.647 216.851L281.813 219.456L281.504 222.049L281.655 224.496Z" fill="#F19183"/>
<path d="M281.904 200.881L279.111 201.024L276.404 200.783L273.694 200.67L270.984 201.167L268.273 200.587L265.563 200.734L262.856 200.432L260.146 201.001L257.439 200.443L254.729 201.073L252.019 200.994L249.308 200.915L246.598 201.081L243.892 200.839L241.181 200.643L238.471 201.039L235.76 200.839L233.05 200.741L230.344 200.787L227.633 200.771L224.923 201.13L222.212 200.783L219.502 201.163L216.792 200.564L214.085 201.13L211.375 200.477L208.664 201.126L205.954 200.572L203.244 200.775L200.533 201.16L197.823 200.869L195.113 200.952L192.402 200.862L189.692 200.99L186.982 200.843L184.271 200.756L181.561 200.873L178.851 200.9L176.14 200.79L173.43 200.986L170.72 200.798L168.009 200.881L165.299 201.167L162.589 200.432L159.878 200.7L157.168 201.02L154.461 200.854L151.751 200.455L149.041 200.549L146.33 201.02L143.62 200.662L140.91 200.481L138.199 200.907L135.489 200.572L132.779 200.553L130.068 200.459L127.358 200.847L124.647 201.084L121.937 200.817L119.223 201.047L116.513 200.579H113.802L111.088 201.167L108.378 201.152L105.668 200.613L102.957 201.118L100.243 201.171L97.5328 201.047L94.8224 201.126L92.1083 200.937L89.3979 200.568L86.6838 200.734L83.9697 200.937L81.4436 200.598L81.485 198.193L80.8948 195.588L81.5413 192.987L81.2895 190.379L81.1654 187.68L83.9622 187.661L86.6725 187.744L89.383 188.012L92.0895 187.831L94.7999 188.091L97.5102 187.48L100.221 187.823L102.927 187.902L105.638 187.778L108.344 187.966L111.054 188.064L113.765 187.563L116.475 188.113L119.186 187.533L121.892 187.868L124.602 187.68L127.313 187.492L130.023 187.691L132.733 187.469L135.444 188.042L138.15 187.574L140.861 187.714L143.571 187.985L146.281 188.072L148.992 187.465L151.702 187.718L154.412 187.665L157.123 187.868L159.833 187.774L162.54 187.559L165.254 188.083L167.96 188.012L170.671 187.601L173.381 188.091L176.091 187.902L178.802 187.729L181.512 188.14L184.222 187.469L186.933 187.473L189.643 187.446L192.354 187.503L195.064 188.08L197.774 187.929L200.485 187.801L203.199 187.944L205.905 187.884L208.616 187.699L211.326 188.064L214.036 187.993L216.743 187.616L219.453 187.963L222.164 188.125L224.874 187.574L227.584 187.646L230.295 188.129L233.005 187.982L235.715 187.574L238.429 187.831L241.14 187.412L243.85 188.095L246.56 187.812L249.275 187.518L251.985 187.838L254.695 187.582L257.409 187.537L260.12 187.763L262.83 187.68L265.54 188.129L268.255 187.868L270.965 187.601L273.675 187.789L276.389 187.763L279.103 187.488L281.833 187.763L281.9 190.375L282.115 192.98L282.073 195.585L281.945 198.186L281.904 200.881Z" fill="#F19183"/>
</svg>
