<svg width="364" height="364" viewBox="0 0 364 364" fill="none" xmlns="http://www.w3.org/2000/svg">
<path d="M214.332 320.004C214.097 320.004 213.862 319.984 213.635 319.946L211.549 319.59L209.471 319.659L206.95 319.732C206.909 319.732 206.867 319.732 206.83 319.732C206.75 319.732 206.674 319.732 206.598 319.725L204.123 319.587L202.041 319.497L199.924 319.808C199.724 319.835 199.524 319.852 199.324 319.852C199.123 319.852 198.913 319.839 198.709 319.808L196.824 319.525L194.939 319.811C194.735 319.842 194.528 319.856 194.321 319.856C194.048 319.856 193.775 319.828 193.509 319.777L191.579 319.39L189.656 319.549C189.542 319.559 189.432 319.563 189.318 319.563C189.294 319.563 186.69 319.518 186.663 319.518L184.208 319.428L181.853 319.393L179.785 319.466L177.614 319.897C177.348 319.949 177.075 319.977 176.806 319.977C176.612 319.977 176.419 319.963 176.229 319.935L173.999 319.621L171.772 319.607C171.685 319.607 171.596 319.604 171.509 319.597L169.334 319.445L167.156 319.638C167.035 319.649 166.914 319.656 166.793 319.656C166.759 319.656 166.721 319.656 166.686 319.656C166.686 319.656 164.117 319.59 164.083 319.587L161.711 319.466L159.408 319.493L156.974 319.607C156.908 319.607 156.846 319.611 156.781 319.611C156.763 319.611 151.719 319.549 151.719 319.549C151.647 319.549 151.574 319.545 151.505 319.542L149.206 319.393L146.903 319.473C146.854 319.473 146.758 319.473 146.754 319.473H144.548L142.459 319.77C142.262 319.797 142.066 319.811 141.869 319.811C141.382 319.811 140.899 319.725 140.439 319.556L138.837 318.969L137.159 318.962C136.749 318.962 136.341 318.896 135.948 318.775L133.676 318.071C133.427 317.995 133.189 317.895 132.958 317.771L131.007 316.735L129.205 315.965L127.092 315.316C126.501 315.133 125.956 314.822 125.5 314.404L123.926 312.958L121.94 311.57C121.647 311.363 121.381 311.121 121.15 310.845L119.472 308.853L117.721 306.957C117.632 306.857 117.545 306.757 117.462 306.65L115.926 304.623C115.822 304.485 115.726 304.34 115.639 304.192L114.345 301.954C114.1 301.533 113.934 301.07 113.851 300.59L113.516 298.664C113.499 298.554 113.481 298.446 113.471 298.336L113.181 295.17C113.154 294.873 113.157 294.573 113.195 294.276L113.447 292.27L113.247 290.264C113.229 290.108 113.223 289.95 113.226 289.791L113.261 287.322L113.292 284.916L113.264 282.744L112.971 280.517C112.901 280.006 112.933 279.488 113.053 278.991L113.502 277.151L113.388 275.535L112.995 273.27C112.912 272.794 112.912 272.31 112.995 271.834L113.392 269.614L113.488 267.794L113.198 265.719C113.164 265.471 113.154 265.222 113.164 264.97L113.271 262.498C113.274 262.412 113.281 262.325 113.292 262.239L113.519 260.099L113.423 258.293L112.953 256.152C112.87 255.779 112.843 255.396 112.867 255.016L113.019 252.544C113.026 252.427 113.04 252.313 113.053 252.199L113.378 249.989L113.412 247.994L113.223 245.732C113.202 245.501 113.202 245.27 113.223 245.042L113.395 242.977L113.16 240.913L112.891 238.42C112.86 238.123 112.86 237.822 112.891 237.526L113.133 235.33L113.081 233.137C113.074 232.92 113.088 232.702 113.116 232.488L113.374 230.551L113.129 228.614C113.078 228.214 113.088 227.806 113.154 227.409L113.485 225.448L113.326 223.494C113.309 223.263 113.309 223.032 113.326 222.8L113.495 220.86L113.164 218.916C113.102 218.543 113.088 218.163 113.126 217.787L113.35 215.65C113.35 215.65 113.226 213.478 113.226 213.458L113.126 211.106L112.888 208.755C112.87 208.572 112.863 208.389 112.867 208.206L112.943 205.738C112.95 205.52 112.974 205.299 113.015 205.085L113.347 203.352L113.053 201.622C112.981 201.204 112.974 200.776 113.033 200.355L113.343 198.118L113.388 196.264L113.053 194.168C112.995 193.795 112.984 193.419 113.029 193.042L113.243 191.164L112.915 189.279C112.812 188.689 112.839 188.081 112.995 187.501L113.454 185.775L113.271 184.069C113.257 183.934 113.25 183.8 113.247 183.662L113.226 181.293L113.088 178.925C113.074 178.687 113.081 178.448 113.109 178.21L113.357 176.032L113.295 173.86C113.295 173.763 113.295 173.67 113.295 173.573L113.374 171.564L113.002 169.548C112.95 169.268 112.929 168.981 112.933 168.698L112.991 166.226C112.995 166.06 113.008 165.891 113.033 165.725L113.302 163.871L113.015 162.014C112.964 161.689 112.953 161.358 112.981 161.03L113.167 158.824L113.071 156.707L112.857 154.325C112.819 153.9 112.846 153.469 112.939 153.055L113.471 150.676L113.827 148.273C113.917 147.668 114.137 147.092 114.476 146.584L115.905 144.433C115.957 144.357 116.009 144.281 116.064 144.209L117.59 142.213C117.701 142.068 117.821 141.93 117.953 141.799L119.631 140.125L121.208 138.336C121.498 138.008 121.837 137.725 122.217 137.504L124.074 136.413L125.683 135.032C125.738 134.984 125.797 134.935 125.856 134.89L127.779 133.409L129.616 131.9L131.297 130.447C131.297 130.447 132.892 128.748 132.906 128.734L134.646 126.932C134.939 126.628 135.278 126.373 135.651 126.169L137.166 125.347L138.254 124.015C138.471 123.745 138.723 123.507 139 123.303L140.398 122.268L141.071 121.529L141.586 120.217C141.61 120.155 141.637 120.089 141.665 120.027L142.421 118.349L142.739 117.23L142.656 115.767C142.639 115.439 142.656 115.107 142.718 114.786L143.215 112.089C143.322 111.503 143.554 110.95 143.895 110.463L145.466 108.223C145.888 107.622 146.461 107.142 147.127 106.835L149.558 105.716C149.623 105.685 149.689 105.657 149.758 105.63L152.268 104.628C152.758 104.435 153.276 104.335 153.801 104.335C153.943 104.335 154.081 104.342 154.222 104.356L156.449 104.584H157.664C157.633 104.363 157.62 104.135 157.626 103.907L157.685 101.573C157.685 101.487 157.692 101.404 157.699 101.317L157.868 99.3978L157.651 97.4782C157.63 97.2849 157.62 97.0914 157.626 96.8981L157.689 94.5641C157.689 94.5124 157.692 94.464 157.696 94.4123L157.827 92.3683L157.668 90.3244C157.582 89.2264 157.937 88.1389 158.655 87.3033L160.616 85.0212C161.411 84.0959 162.56 83.5781 163.758 83.5781C163.952 83.5781 164.145 83.5918 164.338 83.6195L164.804 83.685H165.001C165.277 82.9427 165.764 82.2937 166.4 81.8172L168.333 80.3741C168.685 80.1082 169.079 79.9045 169.5 79.7629L171.882 78.9654C172.196 78.8618 172.518 78.7927 172.849 78.7651L173.892 78.6753L174.057 76.2862L173.146 76.2758C172.935 76.2758 172.725 76.2551 172.514 76.2206L170.083 75.8132C169.407 75.6993 168.768 75.4196 168.223 74.9984L166.272 73.4827C165.823 73.134 165.457 72.7024 165.184 72.2121L164.159 72.0533C163.938 72.0188 163.717 71.967 163.506 71.8979L160.903 71.0452C160.102 70.7828 159.398 70.2821 158.89 69.6088L157.24 67.4303C157.074 67.2093 156.929 66.9745 156.808 66.726L155.893 64.8201L155.196 63.8016L153.663 62.8694C153.587 62.8246 153.511 62.7762 153.438 62.7244L151.864 61.623L150.038 61.1397L148.27 60.7012L146.406 60.974C146.209 61.0016 146.008 61.0188 145.808 61.0188C145.739 61.0188 145.67 61.0188 145.601 61.0154C145.601 61.0154 142.994 60.8842 142.967 60.8842L140.439 60.7047L138.313 60.5734L136.165 60.86C135.986 60.8842 135.803 60.8945 135.62 60.8945C135.354 60.8945 135.088 60.8703 134.825 60.8185L133.027 60.4698L132.547 60.5527L131.974 61.0015L131.704 61.3468L131.663 62.279C131.656 62.4033 131.646 62.5241 131.632 62.6484L131.445 64.0433L131.822 65.4589C131.963 65.9906 131.998 66.543 131.922 67.085L131.625 69.2429L131.387 71.4008C131.314 72.0602 131.083 72.692 130.713 73.2444L129.84 74.5564C129.07 75.713 127.772 76.4001 126.394 76.4001C126.315 76.4001 126.232 76.4001 126.153 76.3932L124.247 76.2827L122.341 76.338C122.299 76.338 122.261 76.338 122.22 76.338C122.154 76.338 122.089 76.338 122.023 76.3345L119.934 76.2344C118.764 76.1792 117.673 75.6302 116.931 74.729L115.985 73.5759C115.467 72.9441 115.146 72.1776 115.063 71.3628L114.811 68.8942C114.773 68.5351 114.783 68.1691 114.842 67.8135L115.187 65.6695L115.194 63.7843L114.921 61.5747C114.887 61.2882 114.88 60.9981 114.907 60.7081L115.07 58.8471L114.68 56.9724C114.617 56.6686 114.586 56.3579 114.593 56.0471L114.642 53.575C114.652 53.1262 114.735 52.6774 114.887 52.2527L115.639 50.1639C115.722 49.9326 115.826 49.7082 115.95 49.4941L117.034 47.6228C117.373 47.0393 117.846 46.5456 118.419 46.1865L120.259 45.0299C120.704 44.7502 121.202 44.5569 121.719 44.4637L123.839 44.0769C123.995 44.0493 124.15 44.0286 124.305 44.0183C124.305 44.0183 126.791 43.8526 126.809 43.8526L129.256 43.7248C129.329 43.7213 129.401 43.7179 129.474 43.7179C129.767 43.7179 130.064 43.7489 130.351 43.8111L132.084 44.1875L133.807 43.9527C133.993 43.9285 134.18 43.9147 134.366 43.9147C134.535 43.9147 134.701 43.9251 134.87 43.9458L136.956 44.2013L138.882 44.0977L141.171 43.7974C141.351 43.7732 141.53 43.7628 141.71 43.7628C141.852 43.7628 141.993 43.7697 142.135 43.7835L144.13 43.9872L146.126 43.7559C146.285 43.7386 146.443 43.7282 146.606 43.7282C146.689 43.7282 146.768 43.7282 146.851 43.7351L149.295 43.8802C149.344 43.8802 149.392 43.887 149.444 43.8905L151.757 44.1115L153.929 44.1771L156.235 44.0908C156.287 44.0908 156.339 44.0908 156.394 44.0908C156.463 44.0908 156.532 44.0908 156.598 44.0942L158.932 44.2082L161.103 44.1978L163.385 44.0045C163.465 43.9975 163.541 43.9941 163.62 43.9906L166.068 43.9251C166.106 43.9251 166.144 43.9251 166.182 43.9251C166.324 43.9251 166.465 43.932 166.603 43.9458L168.63 44.1529L170.657 43.9458C170.798 43.932 170.936 43.9251 171.078 43.9251C171.24 43.9251 171.406 43.9354 171.568 43.9527L173.688 44.2047L175.525 44.1322L177.693 43.7455C177.935 43.7006 178.18 43.6799 178.425 43.6799C178.684 43.6799 178.939 43.7041 179.195 43.7524L180.966 44.0873L182.734 43.8353C182.927 43.8077 183.124 43.7939 183.317 43.7939C183.362 43.7939 183.404 43.7939 183.448 43.7939L185.896 43.8698C186.014 43.8733 186.135 43.8836 186.252 43.8974L188.462 44.1598C188.462 44.1598 190.723 44.1667 190.751 44.1667L192.764 44.2116L194.787 43.8284C195.042 43.78 195.301 43.7559 195.56 43.7559C195.581 43.7559 198.077 43.7939 198.077 43.7939C198.112 43.7939 200.625 43.8939 200.625 43.8939C201.202 43.9181 201.768 44.0597 202.289 44.3152L204.029 45.1715C204.955 45.6272 205.68 46.4109 206.056 47.3742L206.743 49.1143C206.854 49.3905 206.93 49.6805 206.978 49.974L207.378 52.4598C207.465 52.995 207.444 53.5439 207.32 54.0722L206.968 55.5637L207.351 57.0587C207.472 57.5283 207.51 58.0151 207.461 58.495L207.23 60.8427L207.158 63.1905C207.158 63.2941 207.147 63.4011 207.137 63.5047C207.137 63.5047 206.864 66.032 206.864 66.0527L206.615 68.0897C206.388 69.961 204.92 71.4456 203.052 71.6942L201.015 71.967C200.836 71.9911 200.656 72.0015 200.477 72.005H198.647C198.333 72.6886 197.842 73.2755 197.214 73.7002L195.139 75.1123C194.801 75.3436 194.428 75.5232 194.038 75.644L191.628 76.3932C191.231 76.5175 190.82 76.5797 190.405 76.5797H189.601L189.587 77.3081C189.587 77.4393 189.577 77.5706 189.56 77.6983L189.459 78.5753L189.77 78.5269C189.981 78.4958 190.191 78.4786 190.402 78.4786C190.702 78.4786 191.006 78.5131 191.3 78.5787L193.903 79.1553C194.69 79.3314 195.408 79.7319 195.971 80.3085L197.797 82.1832C198.167 82.563 198.457 83.0049 198.657 83.4918L199.217 83.5124C199.41 83.5193 199.603 83.5401 199.793 83.5746L200.749 83.7472C201.93 83.9579 202.963 84.6725 203.577 85.7048L204.879 87.8904C205.307 88.6119 205.507 89.444 205.455 90.283L205.317 92.4132L205.379 94.2915L205.704 96.3768C205.749 96.6702 205.763 96.9706 205.745 97.2676L205.611 99.4427L205.638 101.431L205.863 103.582C205.887 103.81 205.89 104.038 205.877 104.269L207.499 104.325L209.954 104.418C210.199 104.428 210.441 104.459 210.679 104.511L213.331 105.091C213.997 105.236 214.615 105.543 215.133 105.985L217.156 107.708C217.26 107.798 217.36 107.891 217.453 107.988L219.338 109.945C219.946 110.577 220.34 111.385 220.457 112.252L220.833 114.969C220.851 115.097 220.864 115.228 220.868 115.359L220.951 117.282L221.562 118.926L222.549 121.046L223.388 122.775L224.396 123.825L226.254 124.988C226.451 125.113 226.637 125.251 226.81 125.406L228.812 127.188C228.85 127.222 228.888 127.257 228.926 127.295L230.639 128.938L232.582 130.305C232.648 130.35 232.714 130.399 232.776 130.45L234.878 132.118C235.048 132.253 235.203 132.398 235.351 132.556L236.732 134.055L238.245 135.305L239.785 136.51L241.556 137.532C241.977 137.773 242.35 138.088 242.664 138.46L243.869 139.9L245.54 141.178C245.847 141.412 246.12 141.689 246.348 141.996L247.888 144.064C248.136 144.399 248.333 144.768 248.471 145.158L249.317 147.558L250.198 149.94C250.325 150.282 250.405 150.641 250.439 151.004L250.674 153.576C250.709 153.945 250.691 154.315 250.626 154.681L250.287 156.569C250.287 156.569 250.495 158.51 250.495 158.541L250.705 161.009C250.733 161.313 250.722 161.62 250.681 161.924L250.405 163.944L250.571 165.964C250.581 166.102 250.588 166.24 250.584 166.378L250.536 168.85C250.536 169.009 250.522 169.171 250.498 169.33L250.201 171.502L250.218 173.29L250.629 175.386C250.729 175.89 250.733 176.408 250.643 176.912L250.284 178.918L250.384 180.917C250.384 180.962 250.388 181.007 250.388 181.055L250.432 183.524C250.432 183.662 250.432 183.796 250.419 183.934L250.229 186.265L250.194 188.599C250.194 188.633 250.194 188.668 250.194 188.699L250.108 190.919L250.291 193.139C250.298 193.208 250.301 193.274 250.301 193.343L250.384 195.815C250.384 195.87 250.384 195.925 250.384 195.98L250.367 198.453C250.367 198.587 250.356 198.725 250.343 198.86L250.139 200.773L250.453 202.692C250.529 203.158 250.526 203.635 250.443 204.101L250.125 205.851L250.426 207.602C250.481 207.93 250.498 208.265 250.474 208.6L250.332 210.595L250.653 212.594C250.702 212.898 250.716 213.202 250.698 213.509L250.543 215.981C250.533 216.168 250.508 216.351 250.47 216.534L250.091 218.44L250.236 220.263L250.512 222.662C250.539 222.907 250.546 223.152 250.533 223.398L250.394 225.604L250.536 227.81C250.546 227.983 250.546 228.155 250.536 228.324L250.388 230.793C250.381 230.893 250.37 230.993 250.36 231.093L250.066 233.279L250.08 235.261L250.312 237.532C250.339 237.816 250.339 238.102 250.312 238.389L250.084 240.547L250.184 242.666L250.339 245.1C250.339 245.138 250.343 245.18 250.346 245.218L250.429 247.579L250.636 249.941C250.653 250.131 250.657 250.321 250.646 250.511L250.522 252.983L250.405 255.206L250.567 257.419C250.571 257.468 250.574 257.516 250.574 257.561L250.667 260.033C250.681 260.42 250.643 260.806 250.55 261.183L250.18 262.685L250.533 264.186C250.657 264.711 250.674 265.253 250.591 265.785L250.291 267.667L250.533 269.545C250.591 269.987 250.574 270.436 250.488 270.874L250.149 272.597L250.446 274.313C250.519 274.741 250.526 275.179 250.464 275.608L250.167 277.672L250.281 279.73C250.281 279.792 250.287 279.851 250.287 279.913L250.315 282.24L250.705 287.043C250.726 287.281 250.722 287.519 250.702 287.754L250.477 290.226C250.474 290.281 250.467 290.34 250.46 290.395L250.156 292.674L250.073 294.952C250.073 295.018 250.066 295.084 250.06 295.153L249.849 297.639C249.842 297.739 249.828 297.839 249.811 297.942L249.41 300.435C249.386 300.584 249.355 300.729 249.314 300.874L248.627 303.38C248.506 303.822 248.313 304.24 248.054 304.62L246.59 306.771C246.414 307.026 246.21 307.264 245.982 307.475L243.98 309.332C243.931 309.377 243.883 309.419 243.831 309.464L241.763 311.207C241.711 311.249 241.659 311.29 241.608 311.332L239.47 312.965C239.35 313.058 239.222 313.144 239.094 313.224L237.016 314.477L235.065 316.013C234.796 316.224 234.506 316.4 234.195 316.538L231.709 317.65C231.612 317.691 231.516 317.733 231.415 317.767L228.843 318.689C228.588 318.782 228.322 318.848 228.053 318.886L225.453 319.272L222.881 319.787C222.615 319.842 222.342 319.866 222.069 319.866C221.952 319.866 221.835 319.863 221.714 319.852L219.4 319.652L217.312 319.891C217.208 319.901 217.108 319.911 217.004 319.915L214.505 320.015C214.449 320.015 214.394 320.015 214.342 320.015L214.332 320.004Z" fill="white"/>
<path d="M185.24 87.3477L183.02 87.6791L180.566 87.4651L178.121 87.5584L178.249 84.9827L177.855 82.3967L177.969 79.8107L178.145 77.2247L178.328 74.6387L177.848 72.0527L178.087 69.4667L178.418 66.8808L178.076 64.2948L177.993 61.7053L178.225 59.1193L177.945 56.3711H180.566L183.02 56.4643L185.606 56.4021L185.537 59.1159L185.33 61.7019L185.713 64.2879L185.448 66.8738L185.158 69.4598L185.686 72.0424L185.482 74.6283L185.43 77.2178L185.13 79.8038L185.724 82.3898L185.637 84.9861L185.24 87.3477Z" fill="url(#paint0_linear_909_27811)"/>
<path d="M195.519 67.4412L192.905 67.6864L190.437 67.6967L187.968 67.4447L185.499 67.966L183.031 67.4343L180.562 67.7347L178.094 67.4619L175.628 67.4447L173.156 67.5206L170.688 67.9729L168.15 67.6104L168.82 70.2102L170.771 71.7293L173.201 72.1333L176.067 72.1713L178.929 72.6373L181.795 72.5545L184.657 72.2955L187.523 72.4371L190.388 72.4302L192.798 71.6809L194.873 70.2689L195.519 67.4412Z" fill="#378E9F"/>
<path d="M246.531 153.952L246.089 156.421L246.352 158.893L246.562 161.361L246.224 163.83L246.424 166.302L246.379 168.771L246.041 171.243L246.065 173.711L246.552 176.18L246.11 178.652L246.234 181.124L246.279 183.593L246.079 186.061L246.041 188.533L245.948 191.005L246.151 193.474L246.231 195.946L246.213 198.415L245.951 200.887L246.355 203.355L245.906 205.827L246.334 208.299L246.158 210.768L246.555 213.24L246.4 215.709L245.906 218.181L246.103 220.653L246.389 223.121L246.234 225.593L246.393 228.062L246.241 230.531L245.913 233.003L245.927 235.471L246.179 237.94L245.92 240.412L246.034 242.884L246.193 245.353L246.279 247.825L246.497 250.293L246.372 252.765L246.241 255.237L246.424 257.709L246.517 260.178L245.906 262.65L246.49 265.122L246.096 267.594L246.414 270.066L245.93 272.538L246.358 275.01L246.003 277.482L246.141 279.954L246.169 282.423L246.372 284.898L246.572 287.367L246.348 289.843L246.02 292.315L245.927 294.79L245.716 297.276L245.316 299.769L244.629 302.275L243.165 304.423L241.162 306.284L239.094 308.027L236.954 309.66L234.654 311.045L232.5 312.744L230.014 313.855L227.442 314.777L224.738 315.174L222.062 315.709L219.335 315.475L216.832 315.761L214.332 315.861L211.832 315.433L209.329 315.516L206.83 315.592L204.326 315.45L201.827 315.343L199.324 315.709L196.824 315.333L194.321 315.713L191.818 315.212L189.315 315.419L186.815 315.374L184.312 315.281L181.809 315.247L179.305 315.333L176.802 315.83L174.299 315.478L171.796 315.464L169.293 315.288L166.79 315.509L164.287 315.444L161.783 315.319L159.28 315.35L156.777 315.468L154.274 315.437L151.771 315.406L149.264 315.243L146.761 315.33L144.255 315.323L141.865 315.668L139.583 314.829L137.173 314.819L134.902 314.111L132.795 312.992L130.631 312.067L128.307 311.356L126.532 309.723L124.323 308.176L122.583 306.111L120.763 304.147L119.227 302.12L117.935 299.883L117.601 297.956L117.307 294.79L117.618 292.322L117.373 289.85L117.407 287.381L117.438 284.912L117.407 282.44L117.079 279.972L117.683 277.5L117.507 275.031L117.079 272.559L117.521 270.09L117.652 267.618L117.307 265.15L117.414 262.678L117.676 260.209L117.545 257.737L117.007 255.268L117.159 252.796L117.518 250.328L117.563 247.856L117.355 245.387L117.563 242.915L117.286 240.443L117.021 237.974L117.29 235.502L117.231 233.034L117.559 230.562L117.248 228.09L117.666 225.618L117.466 223.149L117.676 220.68L117.255 218.212L117.514 215.74L117.373 213.271L117.269 210.799L117.017 208.33L117.093 205.858L117.566 203.39L117.145 200.918L117.49 198.446L117.549 195.977L117.152 193.505L117.435 191.033L117.003 188.561L117.663 186.092L117.397 183.62L117.376 181.148L117.231 178.676L117.514 176.204L117.442 173.732L117.542 171.26L117.086 168.788L117.145 166.316L117.504 163.844L117.121 161.375L117.328 158.9L117.217 156.428L116.996 153.952L117.559 151.425L117.935 148.873L119.368 146.722L120.894 144.727L122.666 142.959L124.33 141.071L126.505 139.79L128.393 138.167L130.368 136.648L132.291 135.07L134.176 133.44L135.896 131.61L137.636 129.812L139.873 128.596L141.475 126.628L143.202 125.351L144.659 123.749L145.453 121.726L146.33 119.772L146.923 117.693L146.803 115.532L147.296 112.835L148.867 110.595L151.298 109.476L153.805 108.475L156.239 108.723L158.669 108.73L161.103 109.017L163.537 108.723L165.968 108.644L168.402 108.82L170.833 108.703L173.267 108.81L175.701 108.709L178.135 108.596L180.569 108.378L183 108.406L185.434 108.775L187.868 108.375L190.302 108.582L192.736 108.685L195.17 108.865L197.601 108.951L200.035 108.982L202.469 108.516L204.903 108.375L207.341 108.457L209.778 108.551L212.43 109.131L214.453 110.854L216.342 112.811L216.718 115.532L216.828 118.104L217.723 120.517L218.793 122.82L219.932 125.168L221.748 127.06L224.041 128.496L226.043 130.278L227.98 132.139L230.183 133.685L232.282 135.357L233.853 137.062L235.628 138.526L237.44 139.945L239.464 141.115L240.965 142.911L243.006 144.468L244.546 146.536L245.402 148.967L246.296 151.38L246.531 153.952Z" fill="#98E9E2"/>
<g opacity="0.3">
<path d="M230.846 151.791L229.134 149.837L226.803 148.611L224.883 146.899L222.995 145.152L220.899 143.65L218.879 142.058L216.939 140.366L215.361 138.243L213.241 136.765L211.294 135.357L210.106 133.24L208.518 131.469L207.544 129.304L206.585 127.153L205.214 125.582L203.267 125.078L200.743 125.033L198.215 125.168L195.692 125.189L193.164 125.02L190.64 124.957L188.113 124.726L185.589 124.999L183.062 125.389L180.538 124.761L178.011 124.764L175.487 124.799L172.96 125.244L170.432 125.058L167.905 124.84L165.381 125.313L162.85 124.788L160.323 124.809L158.542 125.817L156.898 127.112L156.349 129.453L155.262 131.59L153.591 133.326L152.375 135.439L150.387 136.817L148.325 138.353L146.661 140.377L144.407 141.682L142.705 143.653L140.516 145.048L138.368 146.484L136.483 148.238L134.722 150.147L132.868 151.939L131.67 153.217L130.921 154.954L131.052 157.426L131.304 159.898L131.221 162.37L131.366 164.842L131.421 167.31L131.169 169.782L131.321 172.254L131.111 174.726L131.228 177.199L130.917 179.671L130.859 182.143L131.252 184.615L130.786 187.087L131.045 189.559L130.817 192.031L131.249 194.503L131.111 196.975L131.135 199.444L131.252 201.916L131.311 204.388L130.866 206.86L131.377 209.332L131.087 211.804L131.214 214.272L130.838 216.748L130.914 219.216L131.245 221.689L131.321 224.161L131.194 226.636L131.024 229.108L130.79 231.58L131.446 234.052L131.297 236.528L131.394 239L130.786 241.472L131.263 243.947L131.114 246.419L130.89 248.891L131.332 251.364L131.373 253.836L130.952 256.311L130.807 258.783L131.045 261.259L131.138 263.734L131.225 266.106L133.593 266.065L136.065 266.365L138.537 265.992L141.006 265.989L143.478 266.158L145.95 266.545L148.422 266.441L150.891 265.937L153.363 265.982L155.835 266.261L158.307 266.137L160.779 266.027L163.248 266.037L165.72 266.538L168.188 266.227L170.66 266.02L173.129 266.444L175.601 266.23L178.073 266.313L180.542 266.072L183.014 266.438L185.486 266.213L187.958 266.324L190.43 266.372L192.902 266.068L195.374 266.424L197.846 266.072L200.318 266.258L202.79 265.978L205.262 266.5L207.734 265.909L210.206 266.482L212.678 266.237L215.15 265.951L217.623 266.438L220.095 266.272L222.567 266.296L225.039 266.355L227.514 266.455L229.99 266.427L232.596 266.341L232.182 263.738L232.427 261.266L232.199 258.794L232.517 256.321L232.548 253.849L232.797 251.377L232.483 248.909L232.455 246.437L232.127 243.965L232.462 241.493L232.396 239.021L232.769 236.548L232.203 234.076L232.517 231.604L232.434 229.132L232.42 226.66L232.158 224.188L232.652 221.72L232.669 219.248L232.521 216.775L232.317 214.303L232.262 211.831L232.279 209.359L232.451 206.887L232.676 204.415L232.6 201.943L232.679 199.471L232.524 196.999L232.804 194.527L232.8 192.055L232.724 189.583L232.32 187.111L232.23 184.635L232.396 182.163L232.434 179.691L232.407 177.216L232.496 174.744L232.524 172.272L232.396 169.8L232.762 167.328L232.562 164.852L232.548 162.38L232.141 159.904L232.766 157.429L232.572 154.954L230.846 151.791Z" fill="url(#paint1_linear_909_27811)"/>
</g>
<path d="M232.31 159.501L232.607 161.983L232.427 164.462L232.824 166.941L232.361 169.424L232.344 171.906L232.765 174.385L232.444 176.868L232.282 179.346L232.586 181.829L232.752 184.311L232.748 186.79L232.683 189.273L232.903 191.755L232.506 194.234L232.776 196.716L232.41 199.199L232.444 201.678L232.828 204.16L232.382 206.643L232.341 209.122L232.676 211.604L232.482 214.086L232.513 216.569L232.565 219.048L232.265 221.527L232.793 224.009L232.265 226.488L232.486 228.97L232.379 231.449L232.814 233.932L232.841 236.414L232.506 238.893L232.382 241.376L232.72 243.858L232.793 246.34L232.931 248.819V251.302L232.852 253.784L232.292 256.267L232.299 258.749L232.596 261.231L232.879 263.714L232.841 266.196L232.444 268.679L232.272 271.161L232.372 273.644L232.299 276.126L232.493 278.608L232.831 281.091L232.382 283.573L232.603 286.059L232.935 288.545L231.557 291.159L228.943 292.073L226.464 292.115L223.982 292.229L221.503 292.129L219.021 291.98L216.538 292.008L214.059 291.911L211.577 292.339L209.094 292.408L206.615 292.001L204.133 291.877L201.654 292.46L199.175 292.401L196.693 292.553L194.214 291.897L191.731 292.029L189.252 292.256L186.77 292.519L184.287 292.098L181.808 292.429L179.326 291.873L176.847 292.519L174.365 292.457L171.882 292.256L169.4 292.067L166.917 292.367L164.435 292.491L161.953 291.96L159.47 292.239L156.988 292.436L154.509 292.163L152.026 292.326L149.544 291.939L147.061 291.922L144.579 292.146L142.097 292.308L139.614 292.426L137.128 292.453L134.642 292.464L132.143 291.045L131.224 288.545L130.769 286.066L130.8 283.584L130.772 281.105L130.755 278.622L130.945 276.14L131.152 273.661L131.104 271.178L130.931 268.699L130.731 266.217L130.817 263.735L130.917 261.256L130.955 258.773L130.782 256.291L131.29 253.812L130.641 251.329L131.11 248.847L131.003 246.368L131.183 243.886L131.014 241.403L130.727 238.924L130.724 236.442L131.197 233.959L130.889 231.477L131.059 228.998L131.128 226.519L131.318 224.037L131.045 221.558L131.076 219.075L130.755 216.596L130.834 214.114L131.183 211.635L130.727 209.153L130.817 206.67L131.041 204.188L131.152 201.709L131.017 199.226L130.8 196.744L131.266 194.262L131.228 191.779L131.017 189.297L131.031 186.814L131.155 184.332L130.672 181.85L131.107 179.367L131.062 176.885L131.231 174.402L131.176 171.92L130.876 169.438L130.813 166.955L130.876 164.473L131.293 161.987L130.993 159.501L132.005 156.863L134.642 155.779L137.121 155.762L139.604 155.713L142.086 155.831L144.565 155.9L147.048 155.955L149.53 155.572L152.009 155.972L154.491 156.028L156.974 156.138L159.453 155.593L161.932 155.596L164.414 155.51L166.893 155.834L169.372 155.713L171.855 156.01L174.337 155.679L176.816 156.076L179.298 155.696L181.777 156.128L184.26 156.155L186.742 156.145L189.225 155.745L191.704 156.155L194.186 156.121L196.668 155.696L199.151 155.717L201.633 155.631L204.116 155.62L206.598 156.024L209.081 156.083L211.563 156.004L214.045 155.751L216.528 155.948L219.01 155.872L221.489 156.124L223.975 155.586L226.461 156.104L228.943 155.589L231.65 156.794L232.31 159.501Z" fill="#F19183"/>
<path d="M232.766 159.501L232.507 161.586L232.71 163.675L232.482 165.615L230.131 166.009L227.652 165.833L225.173 165.729L222.694 165.477L220.215 165.999L217.74 165.629L215.261 165.467L212.782 165.774L210.303 165.785L207.824 165.488L205.348 165.546L202.869 165.712L200.39 165.954L197.915 166.088L195.436 165.591L192.957 165.719L190.481 165.653L188.003 165.757L185.524 165.781L183.048 165.864L180.569 165.495L178.09 165.895L175.611 165.705L173.136 165.809L170.653 166.026L168.178 165.47L165.699 165.947L163.216 166.106L160.737 165.781L158.258 165.512L155.779 165.477L153.3 165.636L150.821 165.94L148.342 165.961L145.864 165.571L143.385 165.484L140.902 165.678L138.423 165.47L135.944 165.802L133.462 165.698L131.121 165.595L130.821 163.675L131.152 161.59L130.8 159.501L132.112 156.97L134.643 155.7L137.122 155.845L139.604 156.148L142.086 155.658L144.565 155.921L147.048 155.89L149.53 155.865L152.009 155.89L154.492 155.741L156.974 155.745L159.453 155.71L161.932 155.945L164.414 155.934L166.893 155.61L169.372 155.907L171.855 155.817L174.337 155.789L176.816 155.71L179.299 155.907L181.777 156.135L184.26 155.565L186.742 155.876L189.225 156.014L191.704 155.565L194.186 155.876L196.669 156.021L199.151 155.537L201.633 155.876L204.116 155.613L206.598 155.703L209.081 155.896L211.563 156.114L214.045 155.927L216.528 155.565L219.01 155.945L221.489 155.748L223.975 155.962L226.461 156.104L228.943 156.124L231.495 156.949L232.766 159.501Z" fill="#266D83"/>
<path d="M232.489 282.426L232.514 284.369L232.938 286.458L232.752 288.544L231.547 291.147L228.944 292.514L226.465 292.317L223.982 292.31L221.503 292.331L219.021 292.02L216.538 291.986L214.059 292.307L211.577 292.072L209.095 292.248L206.616 292.497L204.133 292.435L201.654 292.48L199.175 292.276L196.693 292.079L194.214 292.124L191.731 292.373L189.252 292.417L186.77 292.252L184.288 292.293L181.809 291.938L179.326 292.234L176.847 292.528L174.365 292.086L171.882 291.893L169.4 291.91L166.918 292.241L164.435 292.348L161.953 292.355L159.47 292.02L156.988 291.976L154.509 292.017L152.027 292.4L149.544 291.903L147.062 292.31L144.579 292.293L142.097 292.241L139.614 291.976L137.129 292.055L134.643 292.062L132.057 291.133L131.266 288.544L131.232 286.458L130.997 284.369L130.81 282.084L133.458 282.294L135.934 282.274L138.413 282.367L140.892 282.626L143.371 282.35L145.85 282.564L148.325 282.167L150.804 281.96L153.283 282.36L155.762 281.949L158.241 282.367L160.72 282.44L163.196 282.115L165.671 282.412L168.15 282.032L170.629 282.422L173.105 282.132L175.584 282.288L178.063 282.17L180.538 281.977L183.017 281.994L185.496 282.022L187.975 281.953L190.454 282.357L192.933 282.174L195.412 282.018L197.891 282.16L200.37 282.308L202.849 282.205L205.328 282.412L207.807 282.364L210.286 282.44L212.765 282.267L215.244 282.626L217.723 282.143L220.205 282.022L222.684 282.481L225.163 282.35L227.642 282.533L230.128 282.253L232.489 282.426Z" fill="#266D83"/>
<path d="M223.702 223.571L223.533 226.101L222.991 228.58L222.48 231.039L222.446 233.614L221.282 235.903L220.564 238.313L219.642 240.658L218.365 242.829L217.022 244.949L215.748 247.121L214.111 249.034L212.544 251.002L210.883 252.911L208.801 254.357L206.781 255.845L204.72 257.275L202.545 258.521L200.397 259.84L198.132 260.955L195.712 261.667L193.333 262.523L190.885 263.162L188.403 263.7H185.858L183.331 263.341L180.804 263.752L178.294 263.455L175.773 263.196L173.439 262.102L170.905 261.818L168.62 260.731L166.275 259.823L164.017 258.704L161.825 257.461L159.815 255.942L157.699 254.554L155.931 252.752L154.084 251.04L152.517 249.065L150.735 247.255L149.575 244.994L148.083 242.95L146.965 240.682L145.988 238.355L145.104 235.993L144.627 233.511L143.623 231.146V228.587L143.581 226.074L143.243 223.571L143.612 221.071L143.574 218.547L143.851 216.037L144.172 213.517L145.39 211.242L146.195 208.866L147.314 206.622L147.99 204.14L149.461 202.075L150.922 200.024L152.503 198.066L154.112 196.13L156.045 194.51L157.975 192.919L159.933 191.361L161.884 189.77L164.055 188.499L166.213 187.191L168.464 186.02L170.878 185.244L173.429 185.002L175.87 184.456L178.276 183.545L180.8 183.334L183.331 183.735L185.851 183.555L188.365 183.749L190.878 184.011L193.278 184.836L195.636 185.703L198.001 186.524L200.346 187.419L202.821 188.126L204.886 189.611L206.805 191.261L208.967 192.584L210.855 194.262L212.457 196.223L213.994 198.208L216 199.838L217.367 201.971L218.61 204.177L219.314 206.643L220.55 208.835L221.51 211.165L222.183 213.596L222.915 216.02L223.188 218.537L223.54 221.04L223.702 223.571Z" fill="#266D83"/>
<path d="M211.639 217.194L212.064 219.742L211.67 222.293L211.729 224.845L211.843 227.396L211.815 229.951L210.027 231.529L207.637 231.712L205.248 232.057L202.856 231.722L200.466 231.488L198.074 231.788L195.681 231.754L193.288 232.009L191.362 233.528L191.669 235.917L191.645 238.307L191.707 240.699L191.182 243.088L191.825 245.481L191.307 247.874L191.296 250.266L189.712 252.39L187.16 252.138L184.609 252.241L182.061 252.044L179.509 252.365L176.958 251.81L174.827 250.266L174.845 247.877L174.965 245.484L174.848 243.095L174.955 240.706L174.869 238.313L174.893 235.921L175.373 233.528L173.377 231.505L170.988 232.033L168.599 231.653L166.206 231.543L163.817 231.747L161.424 231.75L159.032 231.888L156.639 231.705L155.179 229.951L154.93 227.4L154.505 224.848L154.723 222.297L154.605 219.745L154.509 217.194L156.639 215.533L159.028 215.623L161.417 215.471L163.81 215.33L166.199 215.323L168.592 215.191L170.985 215.06L173.377 215.071L175.107 213.614L175.114 211.224L174.917 208.835L175.221 206.443L175.052 204.053L175.028 201.664L174.952 199.272L175.093 196.875L176.958 195.425L179.506 194.921L182.057 195.056L184.609 194.832L187.16 195.163L189.712 194.942L191.158 196.875L191.324 199.268L191.704 201.657L191.759 204.046L191.583 206.436L191.203 208.828L191.731 211.221L191.248 213.614L193.288 215.119L195.678 215.464L198.07 215.295L200.46 215.368L202.849 215.495L205.241 215.664L207.634 215.43L210.027 215.675L211.639 217.194Z" fill="white"/>
<path d="M201.309 90.0032L201.154 92.3372L201.233 94.6711L201.592 97.0051L201.447 99.3391L201.478 101.673L201.723 104.007L201.499 106.344L201.54 108.737L199.027 108.785L196.565 108.582L194.103 108.426L191.642 108.661L189.18 108.392L186.718 108.992L184.257 108.706L181.798 108.478L179.337 108.513L176.875 108.647L174.413 108.578L171.951 108.347L169.49 108.682L167.028 108.896L164.563 109.006L161.887 108.903L162.291 106.344L161.773 104.014L161.832 101.68L162.036 99.346L161.773 97.012L161.835 94.6781L161.984 92.3406L161.801 90.0032L163.762 87.7211L164.535 87.8315L167 87.8074L169.466 87.3171L171.931 87.2896L174.396 87.9075L176.861 87.6279L179.326 87.507L181.788 87.3551L184.253 87.4863L186.718 87.2896L189.183 87.4863L191.649 87.3551L194.114 87.4932L196.582 87.5554L199.051 87.6485L200.007 87.8178L201.309 90.0032Z" fill="#F19183"/>
<path d="M195.367 87.5588L192.905 87.3758L190.437 87.4759L187.968 87.2584L185.499 87.9075L183.031 87.3413L180.562 87.4172L178.094 87.3551L175.628 87.6693L173.156 87.3551L170.688 87.6693L168.188 87.6244L168.885 85.1351L170.819 83.6884L173.201 82.8909L176.067 82.6492L178.929 83.0566L181.795 82.8702L184.657 82.7114L187.523 83.0601L190.388 82.6182L192.988 83.1947L194.814 85.0695L195.367 87.5588Z" fill="#266D83"/>
<path d="M202.883 50.6265L203.284 53.1124L202.693 55.5983L203.332 58.0807L203.087 60.57L203.008 63.0558L202.742 65.5452L202.493 67.5822L200.456 67.855L197.908 67.8619L195.364 67.9378L192.815 67.8688L190.271 68.2865L187.723 68.4142L185.178 67.8411L182.63 67.8792L180.086 68.3038L177.538 68.3141L174.993 68.0414L172.445 67.9171L169.897 67.741L167.349 68.3521L164.801 67.9551L162.194 67.1057L160.547 64.9272L159.494 62.7382L158.117 60.7219L155.817 59.3271L153.642 57.8044L151.07 57.1208L148.481 56.4822L145.812 56.8723L143.264 56.7446L140.716 56.5616L138.168 56.4061L135.62 56.7446L133.072 56.2473L130.814 56.641L129.022 58.0461L127.627 59.8381L127.53 62.0926L127.233 64.3022L127.82 66.5153L127.52 68.7285L127.275 70.9381L126.401 72.2501L124.312 72.1292L122.227 72.1914L120.138 72.0913L119.192 70.9381L118.94 68.4695L119.341 66.0009L119.348 63.5323L119.044 61.0637L119.261 58.5951L118.747 56.1231L118.795 53.651L119.548 51.5622L120.628 49.6874L122.472 48.5308L124.592 48.1476L127.04 47.9853L129.488 47.8575L131.932 48.3858L134.377 48.0543L136.821 48.3513L139.269 48.2235L141.714 47.9024L144.161 48.1545L146.606 47.8679L149.054 48.0129L151.502 48.2477L153.946 48.3236L156.394 48.2304L158.838 48.3513L161.286 48.3375L163.734 48.1337L166.182 48.0647L168.63 48.3167L171.078 48.0647L173.526 48.3582L175.974 48.2581L178.422 47.8196L180.866 48.2823L183.314 47.9335L185.762 48.0095L188.21 48.2995L190.658 48.3064L193.106 48.3582L195.553 47.8921L198.005 47.9335L200.456 48.0301L202.196 48.8865L202.883 50.6265Z" fill="#266D83"/>
<defs>
<linearGradient id="paint0_linear_909_27811" x1="180.921" y1="83.2011" x2="182.074" y2="66.57" gradientUnits="userSpaceOnUse">
<stop stop-color="#AEFBFF"/>
<stop offset="1" stop-color="#CBFAFF"/>
</linearGradient>
<linearGradient id="paint1_linear_909_27811" x1="183.525" y1="95.8383" x2="182.955" y2="132.929" gradientUnits="userSpaceOnUse">
<stop stop-color="#93F3FF"/>
<stop offset="1" stop-color="#5AC5D6"/>
</linearGradient>
</defs>
</svg>
