<svg width="363" height="364" viewBox="0 0 363 364" fill="none" xmlns="http://www.w3.org/2000/svg">
<path d="M110.574 284.837C110.417 284.784 110.258 284.72 110.106 284.649L107.201 283.28L104.46 282.028L101.754 281.064L98.8049 280.231C98.7283 280.205 98.6547 280.185 98.5781 280.159C98.4845 280.127 98.3952 280.096 98.3045 280.056L95.6038 278.937C95.6038 278.937 92.7041 278.169 92.67 278.157L89.5834 277.253C89.5196 277.232 89.4599 277.211 89.396 277.19C89.2046 277.124 89.0175 277.047 88.839 276.957L86.4117 275.746L83.886 275.162L80.7932 274.599C80.5831 274.56 80.3733 274.508 80.1691 274.438C80.1691 274.438 77.1057 273.41 77.1014 273.408C76.8036 273.307 76.5202 273.177 76.2525 273.015L74.0529 271.705L71.6009 271.169C71.4377 271.133 71.2732 271.086 71.1115 271.031C71.0604 271.014 71.0095 270.997 70.9584 270.979L67.9496 269.831C67.8305 269.791 67.7158 269.737 67.6024 269.68L64.856 268.36L62.0372 267.295C61.5409 267.107 61.0834 266.833 60.6831 266.487L58.2039 264.335C57.7372 263.934 57.359 263.439 57.0961 262.884L55.6738 259.922C55.498 259.558 55.3721 259.172 55.3031 258.773L54.7298 255.601C54.716 255.516 54.7023 255.43 54.6885 255.345L54.2946 252.134C54.2429 251.698 54.2536 251.259 54.324 250.826L54.765 248.233L54.2234 248.01C53.7938 247.835 53.3958 247.595 53.0408 247.298L50.7591 245.39C50.663 245.31 50.5682 245.225 50.4791 245.138L48.3901 243.066C47.8672 242.551 47.4812 241.91 47.259 241.207L46.3561 238.322C46.1422 237.636 46.0933 236.911 46.2177 236.207L46.7318 233.229C46.925 232.125 47.5153 231.137 48.3869 230.454L48.8519 229.542C49.1044 229.048 49.4448 228.603 49.8601 228.231L52.0466 226.269C52.6247 225.753 53.3254 225.392 54.0849 225.222L56.9635 224.595C57.4499 224.49 57.9516 224.465 58.4499 224.521L61.3549 224.868C61.4187 224.875 61.4867 224.884 61.5492 224.896L62.5783 225.066C62.5783 225.066 63.2704 222.557 63.2719 222.539L64.1659 219.419C64.2585 219.104 64.3807 218.798 64.5398 218.51L65.9599 215.898L66.5575 214.299C66.3574 214.259 66.1617 214.207 65.966 214.14C65.8085 214.087 65.6582 214.026 65.5066 213.955L62.7062 212.641C61.8871 212.257 61.2013 211.634 60.7394 210.853L59.1676 208.193C58.9775 207.871 58.8314 207.531 58.7253 207.172L57.875 204.286C57.6809 203.625 57.642 202.927 57.7591 202.244L57.9847 200.933C57.6875 199.609 57.9972 198.217 58.8437 197.145L60.7354 194.75C60.7941 194.675 60.8571 194.601 60.9242 194.529L62.993 192.228C63.7531 191.383 64.7987 190.86 65.9286 190.759L69.0057 190.485C69.5046 190.441 70.0044 190.478 70.4897 190.6L72.94 191.211L73.721 191.272L74.9523 188.348L76.0869 185.387C76.1143 185.306 76.1502 185.228 76.1861 185.149L77.3976 182.452L78.0669 180.207L77.0327 179.66L74.4459 178.499C73.9016 178.256 73.4092 177.903 73.0023 177.465L70.88 175.197C70.2075 174.478 69.7889 173.556 69.6888 172.575L69.3737 169.496C69.3386 169.151 69.3418 168.805 69.3876 168.459L69.7677 165.526C69.8936 164.537 70.343 163.629 71.0284 162.936L71.5645 161.715C71.8405 161.082 72.2626 160.521 72.7877 160.077L75.0805 158.152C75.4586 157.834 75.8847 157.584 76.3388 157.406L79.23 156.279C79.9788 155.987 80.7946 155.903 81.5909 156.031L84.6809 156.546C84.9236 156.586 85.1592 156.647 85.3889 156.725C85.44 156.743 85.5961 156.801 85.5961 156.801L85.991 155.142C86.0446 154.927 86.1095 154.721 86.1887 154.515L87.3933 151.501C87.4337 151.396 87.4812 151.298 87.53 151.196L88.5866 149.026L88.7813 146.543C88.7993 146.35 88.8245 146.163 88.8652 145.973L88.6795 145.89C88.4427 145.791 88.2189 145.667 88.0009 145.526L85.5529 143.927C85.4057 143.829 85.2611 143.723 85.1239 143.61L82.7518 141.618C81.7843 140.804 81.198 139.62 81.1462 138.356L81.0131 135.258L80.8996 132.2C80.8549 130.943 81.3284 129.74 82.1995 128.862L82.6202 127.716C82.9631 126.787 83.6022 125.991 84.4402 125.463L87.0543 123.809C87.4163 123.58 87.8078 123.405 88.2218 123.289L91.1357 122.459C91.7446 122.286 92.3813 122.241 93.0045 122.335L96.0068 122.772C96.2779 122.812 96.5504 122.876 96.8099 122.965C96.878 122.988 96.9461 123.011 97.017 123.04L97.115 121.937C97.1633 121.387 97.3123 120.848 97.5564 120.351L98.7624 117.894L99.3599 115.23C99.4311 114.921 99.5335 114.619 99.6643 114.33L100.697 112.09L99.706 111.501C99.6663 111.478 99.6309 111.456 99.5927 111.429L97.1797 109.894C96.9489 109.749 96.731 109.58 96.5288 109.392L94.3486 107.366C93.8071 106.863 93.3984 106.234 93.1562 105.533L92.1511 102.614C91.8684 101.794 91.8289 100.915 92.0335 100.072L92.7594 97.0855C92.9002 96.501 93.1615 95.9527 93.512 95.4776L94.0902 93.8246C94.445 92.804 95.1511 91.9507 96.083 91.4119L98.749 89.8705C99.1152 89.6576 99.5152 89.4989 99.9291 89.3973L102.805 88.693C103.416 88.5441 104.048 88.5264 104.661 88.6352L107.536 89.1529C107.586 89.1603 107.63 89.1705 107.678 89.1822L108.391 89.3344L109.066 87.2532C109.131 87.0613 109.205 86.8724 109.295 86.6892L110.556 84.0701L111.339 81.4455L112.03 78.4088C112.069 78.2367 112.118 78.0633 112.179 77.8984L112.047 77.8535C112.047 77.8535 109.192 76.9244 109.171 76.9172C108.111 76.5565 107.229 75.8137 106.683 74.8336L105.205 72.1619C105.002 71.7934 104.848 71.3937 104.755 70.9816L104.106 68.1452C104.007 67.7217 103.975 67.2829 104.003 66.8501L104.191 63.923C104.248 63.0247 104.573 62.1791 105.103 61.48L105.887 59.6971C106.209 58.9698 106.71 58.3418 107.352 57.8754L109.796 56.092C110.325 55.7062 110.928 55.4405 111.568 55.3159L114.487 54.7358C114.89 54.654 115.3 54.6322 115.708 54.6616L118.662 54.892C119.037 54.9198 119.404 54.9974 119.757 55.1176C119.855 55.1509 119.957 55.1856 120.052 55.2275L120.194 54.1774C120.256 53.7277 120.385 53.2912 120.577 52.8764L121.983 49.8694C122.151 49.5128 122.363 49.1808 122.616 48.8818L124.745 46.3488C125.133 45.8867 125.607 45.5106 126.141 45.236L128.95 43.805L131.633 42.2409C132.046 42.0011 132.489 41.8285 132.954 41.73L136.195 41.0406C136.707 40.9296 137.239 40.9155 137.76 40.9883L141.092 41.4616C141.369 41.4987 141.644 41.5687 141.907 41.6585C142.214 41.7628 142.513 41.9026 142.792 42.0737L145.279 43.586L147.309 44.3867L149.954 44.6167C150.314 44.6487 150.668 44.7219 151.013 44.8392C151.264 44.9247 151.512 45.033 151.747 45.1654L153.988 46.4086L156.475 46.8984C156.666 46.9351 156.858 46.986 157.045 47.0498L160.093 48.0826C160.152 48.1029 160.212 48.1231 160.271 48.1434L163.27 49.3069C163.317 49.3229 163.358 49.3416 163.403 49.3618L166.076 50.4951L168.828 51.2228L171.912 51.9638C172.049 51.9959 172.178 52.035 172.31 52.0799C172.361 52.0973 172.416 52.1162 172.471 52.135L175.474 53.2858C175.576 53.3205 175.674 53.3681 175.769 53.41L178.12 54.5101L180.712 54.9122C180.969 54.9521 181.223 55.0147 181.466 55.0973C181.538 55.1219 181.606 55.1451 181.677 55.174L184.633 56.3515L187.605 57.4822C187.798 57.5574 187.988 57.641 188.168 57.7403L190.514 59.024L192.941 59.6175L196 60.169C196.22 60.2058 196.437 60.2655 196.65 60.338C196.79 60.3857 196.932 60.4434 197.068 60.504L199.731 61.7198L202.52 62.5646C202.566 62.5805 202.617 62.5979 202.664 62.6138C202.707 62.6283 202.749 62.6428 202.792 62.6573L205.731 63.7578C205.731 63.7578 208.716 64.7646 208.721 64.766C208.904 64.8283 209.082 64.9034 209.258 64.987L211.787 66.2333L214.22 66.9094L217.179 67.3507C217.446 67.3892 217.708 67.4548 217.963 67.5417C218.304 67.6575 218.63 67.8161 218.934 68.0101L220.932 69.2847L223.225 69.6467C223.359 69.6688 223.497 69.6967 223.629 69.7273L226.753 70.5199C226.867 70.549 226.983 70.5839 227.094 70.6215C227.158 70.6432 227.226 70.6664 227.288 70.6924L233.277 73.0451L236.128 74.1821L238.937 75.0626L241.958 75.8674C242.005 75.8834 242.053 75.895 242.105 75.9081L245.182 76.8414C245.229 76.8573 245.28 76.8747 245.327 76.8907C245.684 77.0123 246.025 77.1809 246.34 77.3878L248.448 78.7712L250.815 79.3202C250.959 79.3552 251.107 79.3959 251.247 79.4437C251.273 79.4524 254.014 80.4379 254.014 80.4379L256.857 80.9824C257.061 81.0234 257.263 81.0731 257.458 81.1397C257.68 81.2151 257.895 81.3073 258.105 81.4167L260.509 82.6824L263.114 83.3409C263.202 83.3613 263.288 83.3861 263.373 83.4151C263.373 83.4151 266.497 84.4069 266.526 84.4171C266.726 84.4851 266.922 84.5661 267.112 84.664L269.298 85.7745L271.771 86.0648C272.087 86.1008 272.395 86.1724 272.692 86.2737C272.735 86.2882 272.773 86.3012 272.816 86.3157L275.827 87.4409C275.938 87.4785 276.049 87.5305 276.156 87.5767L278.598 88.7171L281.251 89.2492C281.442 89.2859 281.632 89.3411 281.815 89.4034C282.13 89.5105 282.433 89.6518 282.719 89.8301L284.759 91.0807L287.09 91.4415C287.347 91.4814 287.6 91.5441 287.847 91.6281C287.907 91.6484 287.966 91.6687 288.026 91.6889L290.845 92.7816L293.747 93.6271C293.811 93.6488 293.874 93.6705 293.938 93.6923L296.99 94.7408C297.045 94.7596 297.105 94.7799 297.16 94.7987L299.066 95.2524C299.206 95.286 299.34 95.3266 299.476 95.3729C299.625 95.4236 299.767 95.4814 299.911 95.5449L301.318 96.1953L302.372 96.3493C302.639 96.3878 302.905 96.4549 303.161 96.5418C303.446 96.6388 303.721 96.7657 303.983 96.9167L306.521 98.4038L309.199 99.463C309.275 99.4891 309.354 99.5252 309.427 99.5598L312.304 100.886C312.685 101.064 313.045 101.291 313.363 101.57L315.805 103.681C316.329 104.135 316.741 104.699 317.009 105.337L318.266 108.313C318.299 108.396 318.33 108.473 318.362 108.56L319.431 111.573C319.583 112.005 319.67 112.463 319.686 112.92L319.801 116.145C319.812 116.406 319.798 116.672 319.758 116.929L319.307 120.171C319.255 120.548 319.154 120.918 319.007 121.268L317.917 123.902L317.303 126.698C317.21 127.114 317.06 127.514 316.856 127.892L315.633 130.134L315.184 132.639C315.124 132.985 315.02 133.321 314.882 133.644L313.761 136.216L313.165 138.971C313.129 139.135 313.084 139.295 313.032 139.449L312.002 142.522C311.936 142.718 311.856 142.91 311.766 143.093L310.435 145.765L309.491 148.472L308.57 151.488C308.527 151.616 308.482 151.748 308.435 151.874L307.278 154.705L306.475 157.275L306.051 160.184C305.96 160.818 305.732 161.421 305.392 161.961L304.058 164.056L303.591 166.432C303.576 166.503 303.56 166.578 303.541 166.648L302.758 169.805C302.661 170.191 302.515 170.564 302.323 170.908L301.135 173.047L300.805 175.479C300.721 176.093 300.512 176.683 300.191 177.211L298.985 179.206L298.724 181.519C298.678 181.95 298.564 182.372 298.395 182.772L297.22 185.544L296.379 188.31L295.614 191.359C295.574 191.517 295.527 191.672 295.469 191.829L294.345 194.87C294.302 194.998 294.246 195.121 294.187 195.239L292.975 197.784L292.286 200.508C292.192 200.885 292.047 201.244 291.862 201.581L290.604 203.854L290.097 206.377C290.046 206.626 289.976 206.874 289.883 207.108L288.721 210.136C288.708 210.175 287.627 212.765 287.627 212.765L287.18 215.49C287.135 215.779 287.056 216.066 286.954 216.34L285.818 219.377L284.705 222.399C284.682 222.467 284.653 222.538 284.622 222.603L283.428 225.416L282.591 227.989L282.11 230.898C282.053 231.249 281.953 231.586 281.818 231.915L280.647 234.689L279.783 237.567C279.744 237.696 279.695 237.827 279.647 237.953L278.434 240.964C278.415 241.02 278.388 241.072 278.365 241.126L277.095 243.956L276.154 246.512L275.596 249.366C275.55 249.617 275.476 249.863 275.385 250.103L274.369 252.786L273.807 255.624C273.718 256.069 273.564 256.497 273.349 256.894L272.16 259.091L271.786 261.57C271.742 261.854 271.675 262.136 271.577 262.412L270.49 265.47C270.415 265.692 270.316 265.901 270.209 266.107L268.754 268.793L267.655 271.453L266.719 274.178L266.025 277.127C265.997 277.251 265.96 277.376 265.922 277.501L264.932 280.526L264.036 283.541L263.18 286.63C263.126 286.831 263.054 287.03 262.971 287.22L261.88 289.731L261.383 292.448C261.278 293.026 261.059 293.574 260.745 294.066L259.398 296.171L258.915 298.551C258.845 298.898 258.737 299.232 258.586 299.552L257.322 302.279L256.423 304.992L255.606 308.01C255.554 308.206 255.489 308.398 255.411 308.586L254.324 311.154L253.787 313.906C253.695 314.388 253.525 314.848 253.281 315.274L251.672 318.112C251.61 318.224 251.54 318.333 251.465 318.441L249.616 321.131C249.324 321.559 248.957 321.929 248.536 322.233L245.883 324.145C245.751 324.238 245.612 324.328 245.471 324.409L242.573 326.047C241.846 326.456 241.024 326.656 240.186 326.623L236.858 326.489C236.656 326.482 236.455 326.461 236.259 326.423L233.094 325.863C232.923 325.834 232.756 325.796 232.593 325.745L229.588 324.851L226.548 324.063C226.439 324.035 226.335 324.005 226.229 323.969C226.11 323.928 225.992 323.883 225.877 323.83L225.843 323.818L222.718 322.916C222.65 322.893 222.581 322.874 222.513 322.851C222.432 322.823 222.347 322.794 222.269 322.758L219.625 321.682L216.75 320.685C216.024 320.433 215.387 320.002 214.883 319.445L214.257 319.232L211.332 318.203L208.675 317.46L205.742 317.07C205.451 317.033 205.166 316.964 204.889 316.87C204.753 316.824 204.62 316.769 204.488 316.71L201.924 315.551L199.194 314.884C199.066 314.854 198.937 314.815 198.81 314.772C198.507 314.669 198.217 314.532 197.945 314.368L195.501 312.899L193.371 312.126L190.618 311.793C190.308 311.754 190.005 311.684 189.715 311.585C189.566 311.535 189.421 311.475 189.276 311.412L186.524 310.137L183.994 309.229L181.141 308.657C180.95 308.62 180.764 308.566 180.581 308.504C180.36 308.429 180.144 308.336 179.939 308.228L177.574 306.986L174.994 306.393C174.906 306.373 174.823 306.354 174.738 306.325L171.651 305.421C171.591 305.401 171.528 305.379 171.468 305.359C171.349 305.318 171.235 305.275 171.119 305.226L168.556 304.106L165.822 303.494C165.663 303.459 165.511 303.417 165.358 303.364C165.039 303.256 164.732 303.113 164.441 302.933L162.13 301.505L159.863 300.814L156.925 300.284C156.705 300.247 156.488 300.188 156.276 300.115C156.122 300.063 155.972 300.003 155.825 299.933L153.063 298.646L150.642 297.75L147.866 297.319C147.609 297.279 147.355 297.216 147.108 297.132C146.993 297.093 146.875 297.048 146.763 297.001L143.839 295.729L141.115 294.597L138.258 293.743C138.211 293.728 138.164 293.712 138.117 293.696L135.163 292.709L132.166 291.85L129.039 290.924C128.984 290.905 128.929 290.886 128.874 290.867C128.874 290.867 125.832 289.832 125.827 289.83C125.572 289.743 125.324 289.635 125.089 289.503L122.926 288.296L120.489 287.899C120.242 287.857 119.996 287.798 119.762 287.718C119.711 287.701 119.664 287.685 119.613 287.667L116.783 286.594L113.871 285.764L110.75 284.85C110.691 284.829 110.631 284.809 110.572 284.789L110.574 284.837Z" fill="white"/>
<path fill-rule="evenodd" clip-rule="evenodd" d="M249.472 313.084L247.857 315.923L246.01 318.607L243.357 320.517L240.458 322.154L237.128 322.022L233.963 321.457L230.879 320.539L227.76 319.728L224.803 318.436L221.827 317.198L218.827 316.033L215.785 314.992L212.756 313.927L209.651 313.059L206.404 312.623L203.459 311.296L200.324 310.528L197.503 308.835L194.48 307.738L191.22 307.34L188.285 305.984L185.259 304.896L182.081 304.255L179.199 302.741L176.051 302.015L172.963 301.11L170.006 299.817L166.851 299.109L164.04 297.371L160.964 296.432L157.765 295.856L154.834 294.486L151.816 293.373L148.597 292.87L145.637 291.586L142.663 290.344L139.579 289.427L136.53 288.407L133.436 287.519L130.352 286.601L127.305 285.563L124.449 283.972L121.232 283.446L118.223 282.307L115.128 281.424L112.042 280.515L109.111 279.131L106.171 277.787L103.138 276.706L100.04 275.831L97.0639 274.594L93.9441 273.768L90.8561 272.864L87.9482 271.412L84.8011 270.682L81.6035 270.101L78.5515 269.075L75.7257 267.395L72.5613 266.701L69.5512 265.552L66.6231 264.146L63.6228 263.009L61.1374 260.855L59.7158 257.899L59.1365 254.726L58.7409 251.515L59.2916 248.285L60.6524 245.326L61.2174 242.096L62.4465 239.092L63.9266 236.174L64.2829 232.873L65.8439 229.982L66.7153 226.856L67.574 223.726L68.4667 220.607L70.0319 217.718L71.1715 214.684L71.4782 211.361L72.8222 208.396L74.1151 205.414L75.3439 202.41L75.6109 199.078L77.1295 196.173L77.8262 192.988L79.0894 189.996L80.2473 186.963L81.5828 183.995L82.5053 180.887L83.1 177.667L84.2624 174.635L85.751 171.72L86.3031 168.485L87.4896 165.467L88.0217 162.221L89.5659 159.324L90.3179 156.158L91.5214 153.145L92.9519 150.205L93.2147 146.872L94.7501 143.973L95.4257 140.78L97.1527 137.946L97.492 134.639L98.67 131.618L99.7074 128.548L101.234 125.646L101.533 122.32L102.97 119.387L103.684 116.208L105.051 113.246L106.237 110.228L107.04 107.079L108.062 104L109.466 101.055L110.163 97.8699L111.597 94.9314L112.266 91.7318L113.265 88.6495L114.683 85.7052L115.611 82.594L116.333 79.4175L117.588 76.4223L118.316 73.2431L119.708 70.2899L120.741 67.2194L122.014 64.2256L123.062 61.1551L124.118 58.0874L124.566 54.8081L125.97 51.8067L128.099 49.2712L131.018 47.7843L133.806 46.1626L137.044 45.4735L140.377 45.9484L143.193 47.6589L146.187 48.8408L149.484 49.1275L152.342 50.7143L155.522 51.3463L158.567 52.3791L161.569 53.5397L164.536 54.8025L167.649 55.6306L170.788 56.3861L173.793 57.5382L176.724 58.9077L179.947 59.4118L182.938 60.6022L185.947 61.7415L188.811 63.3113L191.945 64.0796L195.142 64.6604L198.086 66.0058L201.166 66.9361L204.177 68.0669L207.225 69.0911L210.135 70.5245L213.237 71.3867L216.466 71.8737L219.257 73.6566L222.479 74.165L225.605 74.959L228.601 76.1366L231.597 77.3142L234.587 78.5089L237.656 79.4691L240.77 80.2973L243.848 81.2319L246.626 83.0531L249.774 83.7831L252.8 84.8713L255.986 85.4863L258.871 87.0063L261.997 87.7959L265.064 88.7648L267.965 90.2379L271.229 90.6227L274.242 91.7492L277.177 93.12L280.356 93.7564L283.166 95.4838L286.395 95.9851L289.395 97.15L292.487 98.0562L295.528 99.1017L298.478 100.43L301.71 100.908L304.551 102.571L307.55 103.754L310.429 105.082L312.872 107.193L314.13 110.17L315.204 113.184L315.319 116.412L314.87 119.649L313.628 122.648L312.931 125.834L311.353 128.719L310.776 131.944L309.479 134.925L308.79 138.113L307.756 141.188L306.301 144.115L305.238 147.176L304.29 150.275L303.065 153.281L302.1 156.374L301.629 159.636L299.838 162.449L299.205 165.656L298.422 168.816L296.822 171.694L296.381 174.966L294.662 177.804L294.289 181.099L293.022 184.09L292.081 187.197L291.29 190.35L290.167 193.39L288.768 196.336L287.972 199.492L286.377 202.371L285.74 205.577L284.575 208.602L283.327 211.605L282.796 214.847L281.665 217.884L280.547 220.925L279.274 223.919L278.275 227.001L277.74 230.242L276.477 233.234L275.546 236.339L274.334 239.349L272.998 242.317L271.88 245.358L271.255 248.568L270.106 251.604L269.473 254.811L267.912 257.702L267.422 260.962L266.338 264.016L264.772 266.905L263.529 269.909L262.473 272.976L261.734 276.147L260.725 279.231L259.802 282.339L258.934 285.47L257.641 288.453L257.053 291.68L255.254 294.489L254.602 297.695L253.232 300.655L252.211 303.73L251.364 306.869L250.092 309.872L249.472 313.084Z" fill="#F1D44C"/>
<path fill-rule="evenodd" clip-rule="evenodd" d="M218.19 316.465L221.175 317.505L223.934 318.625L227.02 319.509L227.873 316.146L229.194 313.167L230.375 310.14L230.877 306.886L232.139 303.886L232.918 300.727L234.023 297.674L234.803 294.51L235.889 291.455L237.258 288.492L238.639 285.533L239.418 282.374L240.02 279.149L241.525 276.232L242.791 273.234L243.847 270.169L244.751 267.047L245.528 263.882L246.78 260.884L247.863 257.823L248.379 254.57L249.343 251.468L250.643 248.482L251.441 245.324L253.111 242.468L253.912 239.312L254.578 236.109L255.772 233.086L256.961 230.062L257.793 226.915L259.211 223.974L260.085 220.842L261.403 217.861L261.932 214.612L262.921 211.52L264.205 208.527L265.245 205.452L266.737 202.531L267.258 199.279L268.439 196.251L269.305 193.117L270.66 190.149L271.461 186.997L272.442 183.902L273.439 180.812L275.122 177.96L275.711 174.731L276.449 171.553L277.741 168.564L278.572 165.417L279.966 162.463L281.372 159.517L282.15 156.347L283.163 153.268L284.503 150.29L285.331 147.142L286.175 144.001L287.569 141.046L288.307 137.868L289.144 134.719L290.607 131.787L291.055 128.51L292.3 125.505L293.127 122.357L294.374 119.348L295.188 116.196L296.766 113.303L297.721 110.199L298.652 107.082L300.091 104.138L300.783 100.897L298.036 99.6288L295.132 98.9398L292.316 98.0861L291.195 101.105L290.361 104.246L288.813 107.148L288.413 110.437L287.1 113.419L286.3 116.571L284.961 119.544L284.325 122.757L282.565 125.587L281.892 128.783L280.579 131.765L279.898 134.958L278.461 137.898L277.958 141.156L276.448 144.071L276.077 147.374L274.633 150.307L273.793 153.451L272.211 156.341L271.175 159.418L270.609 162.65L269.535 165.713L268.451 168.774L267.402 171.846L266.289 174.897L264.939 177.862L264.189 181.035L263.417 184.202L261.758 187.066L261.161 190.292L260.253 193.413L259.344 196.533L258.233 199.579L257.299 202.69L256.169 205.735L255.12 208.807L254.063 211.876L252.54 214.787L251.918 218.005L250.664 221.007L249.892 224.174L248.268 227.05L247.342 230.164L246.734 233.382L245.676 236.451L244.708 239.551L243.648 242.614L242.075 245.508L241.154 248.624L240.164 251.716L239.043 254.764L238.557 258.028L237.013 260.932L235.934 263.994L234.804 267.038L233.751 270.109L232.907 273.251L231.905 276.339L231.059 279.485L229.579 282.411L229.012 285.647L227.942 288.712L226.884 291.781L225.535 294.756L224.712 297.905L223.604 300.957L222.736 304.096L221.585 307.133L220.212 310.095L219.493 313.289L218.19 316.465Z" fill="#266D83"/>
<path d="M138.358 74.3351L136.844 77.0171L134.354 78.8107L131.403 79.4828L128.566 78.668L125.54 77.737L122.315 77.3796L119.534 75.71L116.53 74.7008L113.551 73.6049L110.65 72.6688L109.172 69.9939L108.522 67.159L108.713 64.2353L108.832 64.2758L110.034 61.5349L112.477 59.7538L115.396 59.1756L118.35 59.4074L121.249 60.7276L124.412 61.254L127.475 62.0885L130.303 63.6318L133.296 64.6752L135.736 66.2573L137.695 68.4357L138.439 71.3026L137.683 74.2142L138.358 74.3351Z" fill="#266D83"/>
<path d="M126.594 108.213L124.986 110.668L122.672 112.403L119.93 113.763L117.034 112.743L113.97 111.923L111.002 110.807L107.985 109.836L104.821 109.3L102.032 107.642L99.6165 106.111L97.4367 104.081L96.4288 101.167L97.1531 98.1825L97.3445 98.2477L98.3553 95.342L101.022 93.7986L103.896 93.1005L106.773 93.6151L109.893 94.2835L112.779 95.6279L115.724 96.8117L118.87 97.4133L121.885 98.3928L124.457 99.9772L126.645 102.181L127.284 105.245L126.855 108.311L126.594 108.213Z" fill="#266D83"/>
<path d="M115.138 142.19L113.758 144.87L111.239 146.496L108.418 147.541L105.561 146.643L102.52 145.759L99.498 144.801L96.3441 144.235L93.4035 143.038L90.48 141.776L88.0311 140.177L85.661 138.191L85.5261 135.095L85.4124 132.062L85.7953 132.193L86.8572 129.304L89.4702 127.653L92.3848 126.821L95.3874 127.26L98.259 128.661L101.413 129.213L104.282 130.622L107.329 131.518L110.314 132.583L112.846 134.077L114.695 136.37L115.328 139.242L115.227 142.22L115.138 142.19Z" fill="#266D83"/>
<path d="M103.519 176.115L102.331 178.899L99.9649 180.915L96.8849 180.916L93.9211 181.037L90.9831 179.846L87.9947 178.79L85.0756 177.529L81.8598 177.147L79.0184 175.642L76.2949 174.419L74.1718 172.152L73.8565 169.07L74.2353 166.139L74.5203 166.236L75.6906 163.56L77.9795 161.631L80.8685 160.511L83.959 161.027L86.9213 162.159L89.9486 163.086L92.9915 163.98L95.8934 165.306L98.8314 166.512L101.197 168.216L103.107 170.387L104.439 173.169L103.647 176.159L103.519 176.115Z" fill="#266D83"/>
<path d="M92.146 210.126L90.9734 212.99L88.1745 214.28L85.4049 215.118L82.3544 215.214L79.4697 213.866L76.3344 213.244L73.5017 211.728L70.5899 210.446L67.4201 209.913L64.619 208.597L63.0459 205.937L62.1956 203.048L62.701 200.094L62.3734 199.982L64.2639 197.59L66.3316 195.292L69.4083 195.019L72.218 195.72L75.4742 195.983L78.2537 197.643L81.2679 198.622L84.3757 199.339L87.269 200.676L90.2052 201.605L91.4124 204.449L92.3501 207.178L92.3502 210.195L92.146 210.126Z" fill="#266D83"/>
<path d="M80.5882 244.067L79.198 246.706L76.6341 248.156L73.9214 249.246L71.0764 248.538L67.9324 247.957L64.954 246.871L61.8952 246.023L58.8667 245.086L55.9245 243.88L53.6417 241.971L51.5517 239.9L50.6474 237.017L51.1642 234.042L51.5642 234.179L52.8575 231.63L55.0429 229.671L57.921 229.046L60.8218 229.393L63.9916 229.912L66.8575 231.316L69.9956 231.929L72.9305 233.157L75.7879 234.601L78.7225 235.562L80.0935 238.329L81.0891 241.125L80.652 244.089L80.5882 244.067Z" fill="#266D83"/>
</svg>
